<svg width="15" height="15" viewBox="0 0 15 15" fill="none" xmlns="http://www.w3.org/2000/svg">
<path d="M14.4871 12.218C14.1898 11.943 13.7991 11.7911 13.394 11.7931C13.3208 11.7956 13.2478 11.8028 13.1755 11.8151L11.8451 9.59766C12.9947 8.69889 13.198 7.03839 12.2993 5.88879C12.0725 5.59879 11.7877 5.35938 11.4631 5.18588L12.6412 3.22229C12.7135 3.23447 12.7865 3.2418 12.8598 3.24421C13.7515 3.25075 14.4797 2.53316 14.4862 1.6414C14.4928 0.749648 13.7752 0.021442 12.8834 0.0148988C11.9916 0.00835562 11.2635 0.725948 11.2569 1.6177C11.2539 2.03024 11.4089 2.42831 11.6901 2.73017L10.4078 4.86742C10.3335 4.86313 10.263 4.84714 10.1882 4.84714C9.64363 4.84748 9.11235 5.01535 8.66647 5.32801L4.28512 2.40799C4.29802 2.33107 4.3066 2.25346 4.31077 2.17557C4.32085 0.985203 3.364 0.0120812 2.17367 0.00203157C0.983311 -0.00801804 0.0101891 0.948793 0.000139481 2.13916C-0.00991013 3.32952 0.9469 4.30264 2.13726 4.31269C2.83084 4.31854 3.48485 3.99029 3.89457 3.43067L7.92434 6.11717C7.75556 6.38285 7.63559 6.67651 7.5701 6.98435H4.21246C3.91736 6.1497 3.00153 5.71231 2.16691 6.00741C1.33226 6.30251 0.894868 7.21834 1.18997 8.05296C1.48507 8.88761 2.4009 9.325 3.23555 9.0299C3.69204 8.86851 4.0511 8.50945 4.21249 8.05296H7.5701C7.63543 8.36077 7.75522 8.65444 7.9238 8.92014L3.89457 11.6066C3.19632 10.6612 1.86383 10.4608 0.91838 11.159C-0.0270664 11.8573 -0.227495 13.1898 0.470749 14.1352C1.16899 15.0806 2.50149 15.2811 3.44694 14.5828C3.99284 14.1797 4.31371 13.5404 4.3108 12.8617C4.30732 12.7839 4.29949 12.7063 4.28729 12.6293L8.66863 9.7093C9.31253 10.1708 10.1336 10.3089 10.893 10.0833L12.2288 12.306C11.6295 12.954 11.6689 13.9651 12.3168 14.5644C12.9647 15.1637 13.9759 15.1243 14.5752 14.4764C15.1744 13.8285 15.135 12.8174 14.4871 12.218Z" fill="#F37022"/>
</svg>
