<svg width="17" height="20" viewBox="0 0 17 20" fill="none" xmlns="http://www.w3.org/2000/svg">
<mask id="path-1-inside-1" fill="white">
<path d="M14.3154 6.27416H11.5509V2.48661C13.1185 3.14249 14.203 4.5912 14.3154 6.27416ZM9.73573 0.952377V6.27416H7.31206V0.952377H9.73573ZM5.49679 2.48661V6.27416H2.73222C2.8447 4.59114 3.92923 3.14244 5.49679 2.48661ZM0.904785 8.01498H16.1429V9.75857H0.904785V8.01498ZM14.3263 10.435V13.483C14.3263 16.5513 11.7233 19.0476 8.52389 19.0476C5.32446 19.0476 2.72151 16.5513 2.72151 13.483V10.435H14.3263Z"/>
</mask>
<path d="M14.3154 6.27416H11.5509V2.48661C13.1185 3.14249 14.203 4.5912 14.3154 6.27416ZM9.73573 0.952377V6.27416H7.31206V0.952377H9.73573ZM5.49679 2.48661V6.27416H2.73222C2.8447 4.59114 3.92923 3.14244 5.49679 2.48661ZM0.904785 8.01498H16.1429V9.75857H0.904785V8.01498ZM14.3263 10.435V13.483C14.3263 16.5513 11.7233 19.0476 8.52389 19.0476C5.32446 19.0476 2.72151 16.5513 2.72151 13.483V10.435H14.3263Z" fill="#F37022"/>
<path d="M14.3154 6.27416V65.2742H77.3881L73.1842 2.34171L14.3154 6.27416ZM11.5509 6.27416H-47.4491V65.2742H11.5509V6.27416ZM11.5509 2.48661L34.3232 -51.9415L-47.4491 -86.1545V2.48661H11.5509ZM9.73573 0.952377H68.7357V-58.0476H9.73573V0.952377ZM9.73573 6.27416V65.2742H68.7357V6.27416H9.73573ZM7.31206 6.27416H-51.6879V65.2742H7.31206V6.27416ZM7.31206 0.952377V-58.0476H-51.6879V0.952377H7.31206ZM5.49679 2.48661H64.4968V-86.1528L-17.2746 -51.9419L5.49679 2.48661ZM5.49679 6.27416V65.2742H64.4968V6.27416H5.49679ZM2.73222 6.27416L-56.1365 2.33974L-60.3426 65.2742H2.73222V6.27416ZM0.904785 8.01498V-50.985H-58.0952V8.01498H0.904785ZM16.1429 8.01498H75.1429V-50.985H16.1429V8.01498ZM16.1429 9.75857V68.7586H75.1429V9.75857H16.1429ZM0.904785 9.75857H-58.0952V68.7586H0.904785V9.75857ZM14.3263 10.435H73.3263V-48.565H14.3263V10.435ZM2.72151 10.435V-48.565H-56.2785V10.435H2.72151ZM14.3154 -52.7258H11.5509V65.2742H14.3154V-52.7258ZM70.5509 6.27416V2.48661H-47.4491V6.27416H70.5509ZM-11.2215 56.9147C-29.1387 49.4183 -43.0944 32.0475 -44.5534 10.2066L73.1842 2.34171C71.5004 -22.8651 55.3757 -43.1333 34.3232 -51.9415L-11.2215 56.9147ZM-49.2643 0.952377V6.27416H68.7357V0.952377H-49.2643ZM9.73573 -52.7258H7.31206V65.2742H9.73573V-52.7258ZM66.3121 6.27416V0.952377H-51.6879V6.27416H66.3121ZM7.31206 59.9524H9.73573V-58.0476H7.31206V59.9524ZM-53.5032 2.48661V6.27416H64.4968V2.48661H-53.5032ZM5.49679 -52.7258H2.73222V65.2742H5.49679V-52.7258ZM61.6009 10.2086C60.1414 32.0468 46.1876 49.4182 28.2682 56.9151L-17.2746 -51.9419C-38.3291 -43.1333 -54.452 -22.8645 -56.1365 2.33974L61.6009 10.2086ZM0.904785 67.015H16.1429V-50.985H0.904785V67.015ZM-42.8571 8.01498V9.75857H75.1429V8.01498H-42.8571ZM16.1429 -49.2414H0.904785V68.7586H16.1429V-49.2414ZM59.9048 9.75857V8.01498H-58.0952V9.75857H59.9048ZM-44.6737 10.435V13.483H73.3263V10.435H-44.6737ZM-44.6737 13.483C-44.6737 -18.3361 -18.5101 -39.9524 8.52389 -39.9524V78.0476C41.9568 78.0476 73.3263 51.4388 73.3263 13.483H-44.6737ZM8.52389 -39.9524C35.5579 -39.9524 61.7215 -18.3361 61.7215 13.483H-56.2785C-56.2785 51.4388 -24.909 78.0476 8.52389 78.0476V-39.9524ZM61.7215 13.483V10.435H-56.2785V13.483H61.7215ZM2.72151 69.435H14.3263V-48.565H2.72151V69.435Z" fill="#F37022" mask="url(#path-1-inside-1)"/>
</svg>
