<svg width="17" height="15" viewBox="0 0 17 15" fill="none" xmlns="http://www.w3.org/2000/svg">
<path d="M1.66002 6.02232H15.34V13.4142C15.34 13.8206 15.0018 14.1501 14.5853 14.1501H2.4147C2.31543 14.15 2.21716 14.1309 2.12549 14.0938C2.03383 14.0568 1.95057 14.0025 1.88048 13.9342C1.81039 13.8658 1.75485 13.7847 1.71702 13.6955C1.67919 13.6063 1.65982 13.5107 1.66002 13.4142V6.02232ZM6.22002 7.5001V8.97787H10.78V7.5001H6.22002ZM0.900024 1.58899C0.900024 1.18112 1.24582 0.850098 1.65394 0.850098H15.3461C15.7626 0.850098 16.1 1.17816 16.1 1.58899V4.54454H0.900024V1.58899Z" fill="#F37022"/>
</svg>
