<svg width="15" height="16" viewBox="0 0 15 16" fill="none" xmlns="http://www.w3.org/2000/svg">
<path d="M13.7222 16H1.27778C1.0715 16 0.873667 15.9157 0.727806 15.7657C0.581944 15.6157 0.5 15.4122 0.5 15.2V0.8C0.5 0.587827 0.581944 0.384344 0.727806 0.234315C0.873667 0.0842854 1.0715 0 1.27778 0H13.7222C13.9285 0 14.1263 0.0842854 14.2722 0.234315C14.4181 0.384344 14.5 0.587827 14.5 0.8V15.2C14.5 15.4122 14.4181 15.6157 14.2722 15.7657C14.1263 15.9157 13.9285 16 13.7222 16ZM4.38889 4V5.6H10.6111V4H4.38889ZM4.38889 7.2V8.8H10.6111V7.2H4.38889ZM4.38889 10.4V12H8.27778V10.4H4.38889Z" fill="white"/>
</svg>
