<svg width="18" height="18" viewBox="0 0 18 18" fill="none" xmlns="http://www.w3.org/2000/svg">
<g clip-path="url(#clip0)">
<path d="M10.0304 11.1443C10.0661 10.7692 10.0553 10.3955 10.0011 10.0307L10.8444 9.65479C10.7648 9.24625 10.6395 8.84324 10.4658 8.45323C10.2921 8.06349 10.0763 7.70087 9.82626 7.36812L8.98234 7.74374C8.74751 7.45967 8.47699 7.20188 8.17439 6.97728L8.50521 6.11538C8.15973 5.88304 7.78631 5.68665 7.38773 5.53369C6.99081 5.38128 6.58309 5.27589 6.16847 5.21753L5.83737 6.08025C5.4623 6.04457 5.08861 6.05536 4.72377 6.10957L4.35008 5.27036C3.51529 5.43439 2.73527 5.78844 2.06562 6.29434L2.43682 7.12802C2.1522 7.36286 1.8944 7.63365 1.6698 7.93598L0.81012 7.60627C0.575561 7.95092 0.378896 8.32461 0.225659 8.72292C0.0738037 9.12122 -0.0301989 9.53004 -0.088562 9.9419L0.773332 10.2727C0.73765 10.6478 0.748438 11.0215 0.802652 11.3863L-0.0407098 11.7619C0.0389518 12.1708 0.164253 12.5735 0.337959 12.9635C0.511942 13.3535 0.727416 13.7159 0.977741 14.0486L1.8211 13.673C2.05594 13.9573 2.32646 14.2151 2.62934 14.4397L2.29852 15.3022C2.644 15.5348 3.01741 15.7309 3.41599 15.8839C3.81292 16.0363 4.22063 16.1417 4.63526 16.2L4.96635 15.3373C5.34142 15.3727 5.71511 15.3619 6.07995 15.3077L6.45364 16.1467C7.28843 15.9826 8.069 15.6286 8.73838 15.1227L8.3669 14.289C8.65125 14.0542 8.90932 13.7836 9.13392 13.481L9.99305 13.8107C10.2276 13.4661 10.4243 13.0924 10.5775 12.6944C10.7305 12.2961 10.8342 11.887 10.8926 11.4748L10.0304 11.1443ZM7.73929 11.6054C7.2439 12.8966 5.79588 13.5411 4.50442 13.0457C3.21463 12.5505 2.56931 11.1028 3.06443 9.8119C3.55983 8.52099 5.00784 7.87651 6.29847 8.37135C7.58937 8.86647 8.23441 10.3148 7.73929 11.6054Z" fill="white"/>
<path d="M14.7001 4.27123C14.7001 4.10416 14.6829 3.94069 14.6536 3.78191L15.3 3.4085C15.1435 2.81325 14.8326 2.28024 14.4074 1.85925L13.7593 2.23349C13.5121 2.02162 13.2255 1.85565 12.9121 1.74501V0.997356C12.6267 0.919077 12.3276 0.874268 12.0181 0.874268C11.7086 0.874268 11.4099 0.91963 11.1241 0.997356V1.74529C10.8108 1.85593 10.5245 2.02217 10.2769 2.23377L9.62856 1.85953C9.20397 2.28052 8.8928 2.81353 8.73596 3.40878L9.38266 3.78219C9.35334 3.94124 9.33591 4.10416 9.33591 4.2715C9.33591 4.43885 9.35334 4.60204 9.38266 4.76081L8.73596 5.13423C8.8928 5.72947 9.20397 6.26276 9.62856 6.68348L10.2766 6.30923C10.5242 6.52111 10.8105 6.68707 11.1239 6.79771V7.54565C11.4096 7.62365 11.7083 7.66874 12.0179 7.66874C12.3274 7.66874 12.6267 7.62337 12.9118 7.54565V6.79771C13.2252 6.68707 13.5118 6.52083 13.7591 6.30923L14.4071 6.68348C14.8323 6.26249 15.1432 5.72947 15.2997 5.13423L14.6533 4.76081C14.6829 4.60149 14.7001 4.43857 14.7001 4.27123ZM12.0184 5.52313C11.3269 5.52313 10.7662 4.96273 10.7662 4.2715C10.7662 3.58027 11.3269 3.0196 12.0184 3.0196C12.7091 3.0196 13.2698 3.58 13.2698 4.27123C13.2698 4.96246 12.7091 5.52313 12.0184 5.52313Z" fill="white"/>
</g>
<defs>
<clipPath id="clip0">
<rect width="18" height="18" fill="white"/>
</clipPath>
</defs>
</svg>
