<svg width="16" height="17" viewBox="0 0 16 17" fill="none" xmlns="http://www.w3.org/2000/svg">
<path d="M10.0304 11.1445C10.0661 10.7695 10.0553 10.3958 10.0011 10.0309L10.8444 9.65503C10.7648 9.24649 10.6395 8.84348 10.4658 8.45347C10.2921 8.06374 10.0763 7.70111 9.82626 7.36836L8.98234 7.74399C8.74751 7.45991 8.47699 7.20212 8.17439 6.97752L8.50521 6.11563C8.15973 5.88328 7.78631 5.68689 7.38773 5.53393C6.99081 5.38152 6.58309 5.27614 6.16847 5.21777L5.83737 6.0805C5.4623 6.04482 5.08861 6.0556 4.72377 6.10982L4.35008 5.2706C3.51529 5.43463 2.73527 5.78868 2.06562 6.29459L2.43682 7.12827C2.1522 7.3631 1.8944 7.6339 1.6698 7.93622L0.81012 7.60651C0.575561 7.95116 0.378896 8.32485 0.225659 8.72316C0.0738037 9.12147 -0.0301989 9.53029 -0.088562 9.94215L0.773332 10.273C0.73765 10.648 0.748438 11.0217 0.802652 11.3866L-0.0407098 11.7622C0.0389518 12.171 0.164253 12.5737 0.337959 12.9638C0.511942 13.3538 0.727416 13.7161 0.977741 14.0489L1.8211 13.6732C2.05594 13.9576 2.32646 14.2154 2.62934 14.44L2.29852 15.3024C2.644 15.5351 3.01741 15.7312 3.41599 15.8841C3.81292 16.0365 4.22063 16.1419 4.63526 16.2003L4.96635 15.3376C5.34142 15.373 5.71511 15.3622 6.07995 15.308L6.45364 16.1469C7.28843 15.9829 8.069 15.6288 8.73838 15.1229L8.3669 14.2892C8.65125 14.0544 8.90932 13.7839 9.13392 13.4813L9.99305 13.811C10.2276 13.4663 10.4243 13.0927 10.5775 12.6946C10.7305 12.2963 10.8342 11.8872 10.8926 11.4751L10.0304 11.1445ZM7.73929 11.6056C7.2439 12.8968 5.79588 13.5413 4.50442 13.0459C3.21463 12.5508 2.56931 11.103 3.06443 9.81214C3.55983 8.52124 5.00784 7.87676 6.29847 8.3716C7.58937 8.86672 8.23441 10.315 7.73929 11.6056Z" fill="#F37022"/>
<path d="M14.7001 4.27098C14.7001 4.10391 14.6829 3.94044 14.6536 3.78167L15.3 3.40826C15.1435 2.81301 14.8326 2.27999 14.4074 1.85901L13.7593 2.23325C13.5121 2.02137 13.2255 1.85541 12.9121 1.74477V0.997112C12.6267 0.918833 12.3276 0.874023 12.0181 0.874023C11.7086 0.874023 11.4099 0.919386 11.1241 0.997112V1.74505C10.8108 1.85569 10.5245 2.02192 10.2769 2.23353L9.62856 1.85928C9.20397 2.28027 8.8928 2.81328 8.73596 3.40853L9.38266 3.78195C9.35334 3.94099 9.33591 4.10391 9.33591 4.27126C9.33591 4.4386 9.35334 4.6018 9.38266 4.76057L8.73596 5.13398C8.8928 5.72923 9.20397 6.26252 9.62856 6.68323L10.2766 6.30899C10.5242 6.52087 10.8105 6.68683 11.1239 6.79747V7.5454C11.4096 7.62341 11.7083 7.66849 12.0179 7.66849C12.3274 7.66849 12.6267 7.62313 12.9118 7.5454V6.79747C13.2252 6.68683 13.5118 6.52059 13.7591 6.30899L14.4071 6.68323C14.8323 6.26224 15.1432 5.72923 15.2997 5.13398L14.6533 4.76057C14.6829 4.60124 14.7001 4.43833 14.7001 4.27098ZM12.0184 5.52288C11.3269 5.52288 10.7662 4.96249 10.7662 4.27126C10.7662 3.58003 11.3269 3.01935 12.0184 3.01935C12.7091 3.01935 13.2698 3.57975 13.2698 4.27098C13.2698 4.96221 12.7091 5.52288 12.0184 5.52288Z" fill="#F37022"/>
</svg>
