<svg width="15" height="19" viewBox="0 0 15 19" fill="none" xmlns="http://www.w3.org/2000/svg">
<path d="M14.1666 18.3333H0.833313V16.6666C0.833313 15.5615 1.2723 14.5017 2.0537 13.7203C2.8351 12.9389 3.89491 12.4999 4.99998 12.4999H9.99998C11.105 12.4999 12.1649 12.9389 12.9463 13.7203C13.7277 14.5017 14.1666 15.5615 14.1666 16.6666V18.3333ZM7.49998 10.8333C6.84337 10.8333 6.19319 10.7039 5.58656 10.4527C4.97993 10.2014 4.42874 9.83308 3.96445 9.36879C3.50015 8.90449 3.13186 8.3533 2.88058 7.74667C2.62931 7.14004 2.49998 6.48986 2.49998 5.83325C2.49998 5.17664 2.62931 4.52646 2.88058 3.91984C3.13186 3.31321 3.50015 2.76201 3.96445 2.29772C4.42874 1.83343 4.97993 1.46513 5.58656 1.21385C6.19319 0.962581 6.84337 0.833252 7.49998 0.833252C8.82606 0.833252 10.0978 1.36004 11.0355 2.29772C11.9732 3.2354 12.5 4.50717 12.5 5.83325C12.5 7.15934 11.9732 8.4311 11.0355 9.36879C10.0978 10.3065 8.82606 10.8333 7.49998 10.8333Z" fill="white"/>
</svg>
