<svg width="15" height="19" viewBox="0 0 15 19" fill="none" xmlns="http://www.w3.org/2000/svg">
<path d="M14.1666 18.333H0.833313V16.6663C0.833313 15.5613 1.2723 14.5015 2.0537 13.7201C2.8351 12.9387 3.89491 12.4997 4.99998 12.4997H9.99998C11.105 12.4997 12.1649 12.9387 12.9463 13.7201C13.7277 14.5015 14.1666 15.5613 14.1666 16.6663V18.333ZM7.49998 10.833C6.84337 10.833 6.19319 10.7037 5.58656 10.4524C4.97993 10.2011 4.42874 9.83284 3.96445 9.36854C3.50015 8.90425 3.13186 8.35305 2.88058 7.74643C2.62931 7.1398 2.49998 6.48962 2.49998 5.83301C2.49998 5.1764 2.62931 4.52622 2.88058 3.91959C3.13186 3.31296 3.50015 2.76177 3.96445 2.29747C4.42874 1.83318 4.97993 1.46488 5.58656 1.21361C6.19319 0.962337 6.84337 0.833008 7.49998 0.833008C8.82606 0.833008 10.0978 1.35979 11.0355 2.29747C11.9732 3.23516 12.5 4.50693 12.5 5.83301C12.5 7.15909 11.9732 8.43086 11.0355 9.36854C10.0978 10.3062 8.82606 10.833 7.49998 10.833Z" fill="#F37022"/>
</svg>
