<svg xmlns="http://www.w3.org/2000/svg" width="46" height="47" viewBox="0 0 46 47"><defs><style>.a{fill:#fff;}.b{fill:#d2122e;}.c{fill-rule:evenodd;}</style></defs><g transform="translate(-204.828 -1166.736)"><ellipse class="a" cx="23" cy="23.5" rx="23" ry="23.5" transform="translate(204.828 1166.736)"/><g transform="translate(209.077 1171.892)"><path class="a" d="M22.124,41.869A18.746,18.746,0,1,0,3.378,23.124,18.746,18.746,0,0,0,22.124,41.869Z" transform="translate(-3.378 -4.378)"/><path class="b" d="M167.5,42.351q.156-.775.234-1.558t.077-1.581A15.831,15.831,0,0,0,151.98,23.381h-.192l-.007-.617h.2a16.449,16.449,0,0,1,16.448,16.448q0,.821-.082,1.641t-.241,1.618l-.6-.12Z" transform="translate(-133.234 -20.466)"/><path class="b" d="M166.888,49.513a15.15,15.15,0,0,0,.225-1.5q.074-.75.075-1.524a15.256,15.256,0,0,0-15.255-15.255h-.2l0-.154h.207a15.41,15.41,0,0,1,15.41,15.409q0,.777-.076,1.539t-.227,1.518l-.151-.03Z" transform="translate(-133.188 -27.74)"/><path class="b" d="M168.467,38.537q.166-.822.251-1.666t.083-1.69a16.869,16.869,0,0,0-16.869-16.869h-.2l0-.154h.207a17.024,17.024,0,0,1,17.023,17.024q0,.861-.084,1.705t-.253,1.681l-.151-.03Z" transform="translate(-133.186 -16.435)"/><path class="b" d="M22.408,147q-.013.235-.019.446c0,.151-.006.3-.006.447a15.831,15.831,0,0,0,15.831,15.831q.576,0,1.163-.043t1.152-.125l.089.61c-.4.059-.8.1-1.2.132s-.794.043-1.207.043a16.448,16.448,0,0,1-16.448-16.448c0-.158,0-.313.006-.464s.011-.317.019-.462l.617.033Z" transform="translate(-19.468 -129.147)"/><path class="b" d="M30.25,147.7q-.011.209-.016.413c0,.138-.005.277-.005.415a15.255,15.255,0,0,0,15.255,15.255c.378,0,.756-.014,1.131-.041s.754-.069,1.121-.124l.022.153q-.564.083-1.132.125t-1.142.042a15.41,15.41,0,0,1-15.41-15.41q0-.211.005-.418c0-.142.009-.281.016-.417l.154.008Z" transform="translate(-26.738 -129.783)"/><path class="b" d="M17.34,146.466q-.014.247-.021.491t-.007.491a16.869,16.869,0,0,0,16.869,16.869q.616,0,1.227-.044t1.217-.131l.021.152q-.611.089-1.227.134c-.407.029-.82.044-1.238.044a17.024,17.024,0,0,1-17.024-17.023q0-.25.007-.5t.021-.495l.154.008Z" transform="translate(-15.436 -128.702)"/><path class="c" d="M182.888,273.14l-.4.106.024-.683.377.577Zm-.3-1.014-.376.1-.1,1.766.344-.091.013-.348.582-.153.192.294.349-.092-1.007-1.475Z" transform="translate(-159.782 -238.665)"/><path class="c" d="M196.225,264.977l.27-.112.647,1.553-.31.129-.4-.971-.132.627-.047.02-.539-.348.4.971-.31.129-.647-1.554.27-.112.639.41.159-.742Z" transform="translate(-171.19 -232.312)"/><path class="c" d="M212.95,259.483a.888.888,0,0,0-.445.082c-.1.06-.144.146-.1.218.127.22.685-.183.978.326a.482.482,0,0,1-.194.7.783.783,0,0,1-.5.1l-.181-.314a.7.7,0,0,0,.507-.041c.112-.064.143-.148.094-.233-.138-.24-.681.189-.983-.334a.469.469,0,0,1,.2-.675.919.919,0,0,1,.461-.114l.164.284Z" transform="translate(-185.972 -227.354)"/><path class="c" d="M223.215,249.615l-.391.291.82,1.1-.269.2-.82-1.1-.391.29-.184-.247,1.052-.781.184.247Z" transform="translate(-194.66 -218.751)"/><path class="c" d="M236.35,241.664l-.722.682-1.156-1.223.711-.673.212.224-.468.442.242.256.446-.421.212.224-.446.422.278.294.478-.452.212.224Z" transform="translate(-205.592 -210.949)"/><path class="c" d="M244.678,231.788l.109-.13a.169.169,0,0,1,.268-.024.172.172,0,0,1,.03.264l-.114.136-.293-.246Zm-.452.059,1.289,1.082.216-.257-.523-.44.062-.074c.117-.139.4.028.767.149l.237-.283c-.5-.172-.685-.274-.84-.223a.445.445,0,0,0-.167-.442.452.452,0,0,0-.653.026l-.387.462Z" transform="translate(-214.127 -202.882)"/><path class="c" d="M253.666,218.963l.117-.181c.172-.267.445-.239.688-.082a.458.458,0,0,1,.21.657l-.119.184-.9-.578Zm-.441.115,1.414.912.3-.468a.742.742,0,0,0-.281-1.112.753.753,0,0,0-1.113.168l-.322.5Z" transform="translate(-222.001 -191.514)"/><path class="c" d="M263.869,206.462l-.18.373-.5-.461.683.088Zm-.964-.433-.168.351,1.281,1.219.154-.32-.257-.235.261-.543.348.045.156-.326-1.776-.19Z" transform="translate(-230.325 -180.828)"/><path class="c" d="M268.313,186.39l.089-.278,1.6.515-.1.319-1-.321.392.507-.016.049-.614.184,1,.322-.1.32-1.6-.515.089-.278.727-.22-.462-.6Z" transform="translate(-234.894 -163.4)"/><path class="c" d="M12.832,107.561l1.792-.155-.344,1.261-1.448-1.106Zm2.833,2.182-.736-.568.5-1.841.912-.08.309-1.133-4.724.5-.336,1.234,3.763,3.026.31-1.139Z" transform="translate(-10.565 -93.406)"/><path class="c" d="M35.319,70.721a.751.751,0,0,0,.175-.544q-.049-.2-.488-.515l-3.244-2.294.641-.906,3.275,2.316a2.07,2.07,0,0,1,.885,1.01,1.413,1.413,0,0,1-.306,1.118l-.939-.185Z" transform="translate(-28.215 -58.702)"/><path class="c" d="M64.451,34.8l1.5.991L64.9,36.57,64.451,34.8Zm.874,3.468-.228-.9,1.532-1.132.767.506.942-.7-4.013-2.534-1.026.758,1.078,4.7.949-.7Z" transform="translate(-55.81 -29.87)"/><path class="c" d="M102.951,13.2l1.317-2.646-2.18-1.7,1.358-.3,1.315,1.034.753-1.5,1.352-.3L105.6,10.241l2.388,1.827-1.389.312-1.474-1.15L104.3,12.9l-1.345.3Z" transform="translate(-89.751 -7.36)"/><path d="M60.8,84.326c.005,0,1.916-.458,6.164,1.4a8.815,8.815,0,0,0,1.391.373.713.713,0,0,0-.178-.228c-.109-.109-.218-.218,0-.436s.327-.109.436,0c.888.887-.015,1.269-.018,1.271l-.148.026a8.851,8.851,0,0,1-1.7-.43l-.018-.007c-4.071-1.784-5.8-1.37-5.8-1.369-.151.033-.3.066-.366-.235s.086-.334.236-.368Zm9.1-6.713a1.558,1.558,0,0,0-.527.81l-.021.156-.138.073a5.291,5.291,0,0,1-1.483.5c-.152.025-.3.05-.355-.253s.1-.329.253-.354a4.67,4.67,0,0,0,1.17-.369,2.318,2.318,0,0,1,.633-.961l-.282-1.789.484-.3,1.679,1.221c.122.068.168.134.174.2a.316.316,0,0,1-.074.223c-.417.8-.185.936-.184.937l.042.03a1.885,1.885,0,0,1,.539.941l0,.012c.277,1.586-.217,2.18-.341,2.3a8.517,8.517,0,0,0-.719,1.411,1.281,1.281,0,0,1-1.358,1.021,4.284,4.284,0,0,0-1.149.342l-.03.016a2.081,2.081,0,0,1-1.686.064,1.6,1.6,0,0,1-.978-.5l-.037-.072c-.257-.707-.654-.84-.656-.84l-.1-.055a1.417,1.417,0,0,1-.333-1.988l.029-.035a5.547,5.547,0,0,0,.373-.514c-.089-.024-.155-.094-.155-.3,0-.308.154-.308.308-.308h.272a.209.209,0,0,1,.217,0h.41c.154,0,.309,0,.309.308s-.154.308-.309.308h-.323c-.165.25-.506.761-.65.919a.81.81,0,0,0,.213,1.1A2,2,0,0,1,66.073,83a1.252,1.252,0,0,0,.614.242l.09.034a1.379,1.379,0,0,0,1.187-.063,5.4,5.4,0,0,1,1.355-.407L69.4,82.8a.7.7,0,0,0,.757-.541l.019-.064a9.1,9.1,0,0,1,.847-1.625l.041-.041s.4-.3.147-1.733a1.205,1.205,0,0,0-.333-.593l0,0c-.134-.106-.536-.526-.115-1.5l-.889-.646.182,1.149a.213.213,0,0,1,.02.241c-.012.068-.056.127-.174.162Zm7.881,11.374h0c0,.021.009.231.025.216l.007-.006s.5-.409.69-2.264l.006-.038s.422-1.872,1.867-.084c.095.1.93.931.976.219-.1-.3-.564-1.689-.66-1.958-.1-.168-.672-1.288,1.12-1.321h.022a8.755,8.755,0,0,1,2.3.482c.145.053.29.105.185.395s-.25.237-.395.184a8.144,8.144,0,0,0-2.115-.443c-.824.02-.576.4-.575.4l.024.053c.087.232.7,2.061.7,2.066l.017.1c-.038,2.349-2.041.24-2.047.234l-.018-.02c-.6-.745-.768-.276-.793-.189-.221,2.084-.9,2.645-.9,2.647l.008-.006c-.828.745-1.007-.167-1.044-.524a.617.617,0,0,1-.01-.131h0a.892.892,0,0,1,0-.1V87.3c0-1.287-.5-.888-.572-.818a15.837,15.837,0,0,0-2.733,5.024c-.047.147-.094.294-.387.2s-.245-.241-.2-.387h0a16.513,16.513,0,0,1,2.867-5.254l.013-.013s1.607-1.6,1.628,1.2c0,.018,0,.035,0,.053v1.687Zm0,0Zm-1.2-2.5,0,0,0,0Zm2.523.545h0ZM66.677,73.8s-.376.423-.189.439c.186-.018,1.3-.09,1.3.823V75.04s.122,1.151-1.128.838l-.1-.046s-.088-.064-.059.61a.743.743,0,0,1,0,.1h0a.777.777,0,0,1,0,.126v1.068c.235.307.843,1.25-.546,1.241a.47.47,0,0,1-.138,0,.559.559,0,0,1-.157-.022l-.613-.085c-.153-.02-.306-.042-.265-.347s.194-.284.346-.263l.721.1c.271.011.228-.134.171-.23a.357.357,0,0,1-.136-.4V76.572c-.1-1.77.737-1.413.967-1.281.348.067.318-.2.318-.2v-.025c0-.29-.629-.208-.631-.208l-.037,0c-1.588,0-.285-1.459-.281-1.463.1-.115.2-.231.435-.027s.128.319.025.435Zm-1.791-.276a6.8,6.8,0,0,1-.591-.69.967.967,0,0,1-.053-.125c-.15-.221-.711-1.187,1.1-1.013l.059.011c.014,0,4.751,1.358,12.132,8.662l0,0s1.073,1.033-.385,1.467l-.024.006a.7.7,0,0,0-.563.761c.162.233.453.853-.76,1.164l-.025,0a5.964,5.964,0,0,0-1.128.284l-.077.025s-.9.175-.8-1.378l.016-.076a1.251,1.251,0,0,0-.106-1.028.552.552,0,0,0-.357-.176c-.422-.089-.763-.161-.684-1.066a2.086,2.086,0,0,1,.126-.678c.057-.143.114-.286.4-.172s.228.258.171.4a1.417,1.417,0,0,0-.08.451l0,.029c-.036.384.067.406.195.434a1.059,1.059,0,0,1,.721.405,1.858,1.858,0,0,1,.216,1.547c-.037.582.034.681.064.7a6.687,6.687,0,0,1,1.207-.3c.486-.127.384-.233.383-.234l-.081-.165a1.293,1.293,0,0,1,1.024-1.526c.43-.133.121-.431.12-.432l0,0c-6.968-6.9-11.476-8.385-11.849-8.5-.594-.053-.489.077-.489.077l.063.186s0-.046.019-.009c.03.059.487.542.488.543.106.112.211.225-.013.436s-.329.1-.435-.014Zm-.675-.956ZM72.27,82.7a11.045,11.045,0,0,1-.726,2.006l-.017.025s-.614.834.093.448l.037-.018a8.935,8.935,0,0,1,1.666-.481c.153-.019.306-.038.343.268s-.116.325-.269.344a8.165,8.165,0,0,0-1.508.439c-2.99,1.626-1.034-1.123-.871-1.349a10.623,10.623,0,0,0,.655-1.839c.04-.149.079-.3.377-.22s.258.227.218.377Zm8.065-16.233c.712.2,3.66,1.268,3.66,5.565v0c0,.018.162,6.5-5.9,6.5h.023a4.347,4.347,0,0,1-4.162-2.963l-.01-.028c0-.006-.7-2.231-1.882-2.214L72,73.317a1.061,1.061,0,0,0-.84.323c-.12.1-.239.194-.433-.044s-.074-.336.045-.433a1.749,1.749,0,0,1,1.317-.455c1.531.008,2.352,2.36,2.439,2.62a3.726,3.726,0,0,0,3.548,2.585H78.1c5.428,0,5.282-5.859,5.282-5.876v0c0-3.47-2.084-4.58-2.95-4.892V69a3.543,3.543,0,0,1,1.639,2.5c.008.154.015.308-.293.323s-.316-.14-.323-.294h0a2.939,2.939,0,0,0-1.437-2.065.286.286,0,0,1-.2-.382V66.865a.417.417,0,0,1,0-.161c0-.094.008-.185.094-.237a.243.243,0,0,1,.243-.044.381.381,0,0,1,.186.044Zm-5.8,8.88v0ZM65.4,75.07s-.889,1.473-.981,1.7l-.043.076s-.252.32.071.381l.081.027a.906.906,0,0,0,.377.07c.154,0,.308,0,.308.308s-.154.309-.308.309a1.642,1.642,0,0,1-.608-.117c-1.136-.235-.562-1.139-.43-1.325.17-.365,1-1.746,1.006-1.75.079-.132.159-.264.423-.105s.185.291.1.423Zm-1.146,2.738h0Zm6.955.993v0Zm-.293-.568h0Zm-4.273-7.359s1.089,0,3.653-1.665l-.01.006c.009-.006,3.029-2.138,5.437-2.158h.011a6.048,6.048,0,0,1,2.846.827c.127.088.254.175.079.428s-.3.165-.428.078a5.359,5.359,0,0,0-2.51-.715c-2.216.023-5.072,2.039-5.08,2.044l-.01.006c-2.718,1.766-3.977,1.766-3.981,1.766-.154,0-.308,0-.312-.3s.151-.31.305-.312ZM78.708,83.47s-.74.056-.746.712c0,.047.048.547.72.547l.085.014s.448.147.757-.686c.054-.144.108-.289.4-.182s.234.252.18.4c-.442,1.188-1.239,1.117-1.451,1.074a1.215,1.215,0,0,1-1.3-1.145V84.19a1.379,1.379,0,0,1,1.31-1.337c.154-.014.307-.027.334.281s-.127.323-.281.336ZM67.165,88.025a2.779,2.779,0,0,1,2.08,2.769c.014.154.028.307-.278.335s-.32-.126-.334-.279c-.184-2-1.566-2.217-1.57-2.217-.152-.026-.3-.052-.253-.355s.2-.278.355-.252Z" transform="translate(-53.407 -58.659)"/></g></g></svg>