<svg xmlns="http://www.w3.org/2000/svg" width="42.733" height="38.573" viewBox="0 0 42.733 38.573"><defs><style>.a{fill:#ffb600;}.b{fill:#ff9d00;}.c{fill:#ffcd00;}.d{fill:#ffde55;}.e{fill:#ffeb99;}.f{fill:#fff5ca;}</style></defs><g transform="translate(-186.863 -596.785)"><path class="a" d="M195.867,79.166l1.845,3.6c1.392,2.717,6.709,2.774,11.876.128s8.228-6.995,6.837-9.712l-1.845-3.6Zm0,0" transform="translate(76.667 449.022) rotate(30)"/><path class="b" d="M195.867,140.9l1.845,3.6c1.337,2.611,6.3,2.765,11.272.424a22.281,22.281,0,0,0-2.5-6.367,4.768,4.768,0,0,1-.43-2.874Zm0,0" transform="translate(107.535 395.557) rotate(30)"/><path class="c" d="M209.853,40.238c-1.392-2.717-6.709-2.774-11.877-.127s-8.229,7-6.837,9.712,6.709,2.774,11.877.127S211.245,42.956,209.853,40.238Zm0,0" transform="translate(66.092 476.798) rotate(30)"/><path class="a" d="M201.738,50.238a4.676,4.676,0,0,1-.032-4.087,11.657,11.657,0,0,0,1.364-5.037,18.167,18.167,0,0,0-5.107,1.754c-5.167,2.647-8.228,6.995-6.837,9.712s6.7,2.774,11.857.137C202.57,51.777,202.131,50.948,201.738,50.238Zm0,0" transform="translate(67.479 474.417) rotate(30)"/><path class="d" d="M237.228,79.456c-2.184,1.119-6.506,4.273-5.632,5.979s5.641.2,8.143-1.077,6.506-4.273,5.633-5.979S239.412,78.337,237.228,79.456Zm0,0" transform="translate(51.63 425.869) rotate(30)"/><path class="c" d="M239.706,87.494a9.862,9.862,0,0,0,.879-2.111,20.013,20.013,0,0,0-3.358,1.3c-2.184,1.119-6.506,4.273-5.632,5.979s5.641.2,8.143-1.077A4.677,4.677,0,0,1,239.706,87.494Zm0,0" transform="translate(55.242 419.613) rotate(30)"/><path class="c" d="M6.91,266.5l1.845,3.6c1.391,2.717,6.709,2.774,11.876.128s8.229-6.995,6.837-9.712l-1.845-3.6Zm0,0" transform="translate(316.969 385.742) rotate(30)"/><path class="a" d="M129.182,261.727a3.077,3.077,0,0,0-.327-1.207l-1.845-3.6-11.537,5.909A28.351,28.351,0,0,0,129.182,261.727Zm0,0" transform="translate(229.165 335.048) rotate(30)"/><path class="d" d="M20.9,227.591c-1.392-2.717-6.709-2.774-11.877-.127s-8.229,7-6.837,9.712,6.709,2.774,11.877.128S22.287,230.308,20.9,227.591Zm0,0" transform="translate(306.401 413.504) rotate(30)"/><path class="c" d="M36.256,227.462a17.258,17.258,0,0,0-5.244,4.013c2.155,1.269,7.294,3.447,15.471,1.878,1.756-2.035,2.461-4.178,1.649-5.764C46.74,224.872,41.423,224.815,36.256,227.462Zm0,0" transform="translate(282.812 399.887) rotate(30)"/><path class="e" d="M48.271,266.794c-2.184,1.119-6.506,4.273-5.632,5.978s5.641.2,8.143-1.077,6.506-4.273,5.632-5.979S50.455,265.675,48.271,266.794Zm0,0" transform="translate(291.932 362.587) rotate(30)"/><path class="d" d="M5.039,41.479l1.845,3.6c1.392,2.717,6.709,2.774,11.876.128S26.988,38.213,25.6,35.5l-1.845-3.6Zm0,0" transform="translate(213.407 568.61) rotate(30)"/><path class="e" d="M19.013,2.556C17.621-.161,12.3-.218,7.136,2.429s-8.229,7-6.837,9.712,6.709,2.774,11.877.128S20.4,5.273,19.013,2.556Zm0,0" transform="translate(202.844 596.388) rotate(30)"/><path class="f" d="M46.4,41.768c-2.184,1.119-6.506,4.273-5.632,5.978s5.641.2,8.143-1.077,6.506-4.273,5.632-5.978S48.584,40.65,46.4,41.768Zm0,0" transform="translate(188.37 545.457) rotate(30)"/><path class="d" d="M73.876,266.794a19.955,19.955,0,0,0-3.935,2.744A21.767,21.767,0,0,0,78,270.754c2.282-1.477,4.716-3.671,4.016-5.037C81.146,264.012,76.06,265.675,73.876,266.794Zm0,0" transform="translate(269.757 349.784) rotate(30)"/></g></svg>