<svg xmlns="http://www.w3.org/2000/svg" width="24" height="24" viewBox="0 0 24 24"><defs><style>.a{fill:none;}.b{fill:#fff;}</style></defs><path class="a" d="M0,0H24V24H0Z"/><path class="b" d="M12,2A10,10,0,1,1,2,12,10,10,0,0,1,12,2Zm1.67,14H10.33L8.95,17.9,9.5,19.6a8.045,8.045,0,0,0,4.992,0l.553-1.706L13.669,16ZM5.294,10.872,4,11.809,4,12a7.966,7.966,0,0,0,1.482,4.64h1.91l1.323-1.82L7.687,11.65l-2.393-.778Zm13.412,0-2.393.778-1.028,3.17,1.322,1.82h1.91A7.964,7.964,0,0,0,20,12l0-.19-1.291-.938ZM12,9.536l-2.344,1.7.9,2.762h2.9l.9-2.762Zm2.291-5.2L13,5.273V7.79l2.694,1.957,2.239-.727.554-1.7a8.014,8.014,0,0,0-4.2-2.984Zm-4.583,0A8.014,8.014,0,0,0,5.513,7.318l.554,1.7,2.239.727L11,7.79V5.273l-1.292-.94Z"/></svg>