<svg xmlns="http://www.w3.org/2000/svg" width="33.486" height="25.014" viewBox="0 0 33.486 25.014"><defs><style>.a{fill:#ffc107;}.b{fill:#ffa000;}.c{fill:#ffd54f;}</style></defs><g transform="matrix(0.985, 0.174, -0.174, 0.985, 17.833, -84)"><path class="a" d="M28.361,87.874a2.578,2.578,0,0,0-2.578,2.578,2.551,2.551,0,0,0,.129.8L23.82,92.577a3.223,3.223,0,0,1-4.226-.677l-2.05-2.507a2.549,2.549,0,0,0,.5-1.519,2.578,2.578,0,0,0-5.157,0,2.549,2.549,0,0,0,.5,1.519L11.344,91.9a3.223,3.223,0,0,1-4.224.677L5.028,91.248a2.547,2.547,0,0,0,.129-.8,2.578,2.578,0,1,0-2.8,2.568l1.524,9.14a.645.645,0,0,0,.636.539H26.427a.645.645,0,0,0,.636-.539l1.524-9.14a2.578,2.578,0,0,0-.226-5.146Z" transform="translate(0 0)"/><ellipse class="b" cx="10.958" cy="3.223" rx="10.958" ry="3.223" transform="translate(4.512 98.832)"/><path class="c" d="M75.6,306.364c-5.766,0-11.6-1.328-11.6-3.867s5.836-3.867,11.6-3.867,11.6,1.328,11.6,3.867S81.368,306.364,75.6,306.364Zm0-6.446c-6.771,0-10.313,1.676-10.313,2.578s3.543,2.578,10.313,2.578S85.915,303.4,85.915,302.5,82.373,299.918,75.6,299.918Z" transform="translate(-60.133 -200.442)"/></g></svg>