<svg width="24" height="25" viewBox="0 0 24 25" fill="none" xmlns="http://www.w3.org/2000/svg">
<g clip-path="url(#clip0)">
<path d="M10.5054 14.6935L14.4088 12.3751L10.5054 10.0566V14.6935Z" fill="white"/>
<path d="M22.2691 0H1.7309C0.774902 0 0 0.799118 0 1.78499V22.965C0 23.9509 0.774902 24.75 1.7309 24.75H22.2691C23.2251 24.75 24 23.9509 24 22.965V1.78499C24 0.799118 23.2251 0 22.2691 0V0ZM19.4982 12.3877C19.4982 12.3877 19.4982 14.8974 19.1895 16.1076C19.0164 16.77 18.5099 17.2923 17.8676 17.4705C16.6941 17.7891 12 17.7891 12 17.7891C12 17.7891 7.31818 17.7891 6.13239 17.4579C5.49005 17.2796 4.98358 16.7571 4.81055 16.0947C4.50165 14.8974 4.50165 12.375 4.50165 12.375C4.50165 12.375 4.50165 9.86548 4.81055 8.65529C4.9834 7.99288 5.50232 7.45774 6.13239 7.27949C7.30591 6.96094 12 6.96094 12 6.96094C12 6.96094 16.6941 6.96094 17.8676 7.29214C18.5099 7.47039 19.0164 7.99288 19.1895 8.65529C19.5106 9.86548 19.4982 12.3877 19.4982 12.3877V12.3877Z" fill="white"/>
</g>
<defs>
<clipPath id="clip0">
<rect width="24" height="24.75" fill="white"/>
</clipPath>
</defs>
</svg>
