<svg width="24" height="25" viewBox="0 0 24 25" fill="none" xmlns="http://www.w3.org/2000/svg">
<g clip-path="url(#clip0)">
<path d="M22.2691 0H1.7309C0.774902 0 0 0.799118 0 1.78499V22.965C0 23.9509 0.774902 24.75 1.7309 24.75H22.2691C23.2251 24.75 24 23.9509 24 22.965V1.78499C24 0.799118 23.2251 0 22.2691 0V0ZM17.4791 9.64871C17.4844 9.7705 17.4869 9.89286 17.4869 10.0158C17.4869 13.7691 14.7166 18.0972 9.65021 18.0974H9.65039H9.65021C8.09473 18.0974 6.64728 17.6272 5.42834 16.8215C5.64386 16.8478 5.86322 16.8608 6.08533 16.8608C7.37585 16.8608 8.56348 16.4068 9.50629 15.6449C8.30054 15.6219 7.28394 14.8007 6.93311 13.6721C7.10101 13.7053 7.27368 13.7234 7.45074 13.7234C7.70215 13.7234 7.94568 13.6885 8.17712 13.6233C6.91681 13.3631 5.96741 12.2145 5.96741 10.8391C5.96741 10.8262 5.96741 10.8147 5.96777 10.8028C6.33893 11.0156 6.76337 11.1437 7.21527 11.158C6.47571 10.6491 5.98956 9.77919 5.98956 8.7937C5.98956 8.27329 6.12598 7.78574 6.36255 7.36597C7.72083 9.08468 9.75073 10.215 12.0399 10.3338C11.9927 10.1257 11.9683 9.90891 11.9683 9.6861C11.9683 8.11807 13.2019 6.84594 14.723 6.84594C15.5153 6.84594 16.2308 7.19131 16.7335 7.74344C17.361 7.61579 17.9502 7.37938 18.4825 7.05403C18.2765 7.717 17.84 8.27329 17.2712 8.62507C17.8284 8.55634 18.3594 8.40396 18.8529 8.17774C18.4843 8.74743 18.0168 9.24783 17.4791 9.64871V9.64871Z" fill="white"/>
</g>
<defs>
<clipPath id="clip0">
<rect width="24" height="24.75" fill="white"/>
</clipPath>
</defs>
</svg>
