<svg xmlns="http://www.w3.org/2000/svg" width="101" height="50" viewBox="0 0 101 50"><defs><style>.a,.b{fill:#fff;}.b{font-size:14px;font-family:Poppins-Medium, Poppins;font-weight:500;}</style></defs><g transform="translate(-1624 -1010)"><rect class="a" width="101" height="50" rx="5" transform="translate(1624 1010)"/><g transform="translate(46.273 579)"><text class="b" transform="translate(1631 461)"><tspan x="0" y="0">Filter</tspan></text><g transform="translate(1590.726 442)"><path class="a" d="M24.729,18.092H13.191a4.091,4.091,0,0,0-8.017,0H1.818a.818.818,0,0,0,0,1.637H5.174a4.091,4.091,0,0,0,8.017,0H24.729a.818.818,0,1,0,0-1.637ZM9.183,21.365a2.455,2.455,0,1,1,2.455-2.455,2.455,2.455,0,0,1-2.455,2.455ZM1.818,9.91H13.357a4.091,4.091,0,0,0,8.017,0h3.356a.818.818,0,1,0,0-1.637H21.374a4.091,4.091,0,0,0-8.017,0H1.818a.818.818,0,0,0,0,1.637ZM17.365,6.637A2.455,2.455,0,1,1,14.91,9.091a2.455,2.455,0,0,1,2.455-2.455Z"/></g></g></g></svg>