<svg version="1.2" baseProfile="tiny-ps" xmlns="http://www.w3.org/2000/svg" viewBox="0 0 683 453" width="683" height="453">
	<title>footer_youtube-svg</title>
	<style>
		tspan { white-space:pre }
		.shp0 { fill: #ffffff } 
	</style>
	<g id="Layer">
		<path id="Layer" fill-rule="evenodd" class="shp0" d="M626.81 64.04C640.52 114.11 640 218.5 640 218.5C640 218.5 640 322.35 626.82 372.43C619.44 399.84 597.82 421.46 570.41 428.84C520.32 442.02 320 442.02 320 442.02C320 442.02 120.2 442.02 69.59 428.31C42.17 420.93 20.56 399.32 13.18 371.9C0 322.35 0 217.97 0 217.97C0 217.97 0 114.11 13.18 64.04C20.55 36.62 42.7 14.48 69.59 7.1C119.67 -6.08 319.99 -6.08 319.99 -6.08C319.99 -6.08 520.32 -6.08 570.41 7.62C597.82 15 619.44 36.62 626.81 64.04ZM422.8 217.97L256.21 122.02L256.21 313.91L422.8 217.97Z" />
	</g>
</svg>