<svg id="Capa_1" enable-background="new 0 0 512 512" height="512" viewBox="0 0 512 512" width="512" xmlns="http://www.w3.org/2000/svg"><g><path d="m288.484 457.792-60.513 27.104-60.512-27.104 19.717-54.95 7.417-20.686 33.378-23.478 33.378 23.478 7.418 20.686z" fill="#e7a52e"/><path d="m207.454 457.792 20.522 27.104-60.513-27.104 27.135-75.636 33.378-23.478-11.322 23.478z" fill="#df8621"/><path d="m268.767 402.842h-81.591l7.417-20.686 33.378-23.478 33.378 23.478z" fill="#df8621"/><path d="m297.724 313.748h-139.505c-12.118 0-21.942 9.824-21.942 21.942v24.525c0 12.118 9.824 21.942 21.942 21.942h139.505c12.118 0 21.942-9.824 21.942-21.942v-24.525c0-12.118-9.824-21.942-21.942-21.942z" fill="#e7a52e"/><path d="m198.484 382.154h-40.267c-12.119 0-21.939-9.83-21.939-21.939v-24.528c0-12.119 9.821-21.939 21.939-21.939h40.267c-12.119 0-21.939 9.821-21.939 21.939v24.528c-.001 12.109 9.82 21.939 21.939 21.939z" fill="#df8621"/><path d="m407.312 179.34c0 4.365-.153 8.687-.467 12.967-2.123 29.839-11.557 57.657-26.519 81.68-24.362 39.146-63.397 68.212-109.421 79.523-13.756 3.38-28.132 5.171-42.933 5.171s-29.177-1.792-42.933-5.171c-46.024-11.311-85.059-40.377-109.421-79.523-14.962-24.022-24.396-51.841-26.519-81.68-.314-4.28-.467-8.602-.467-12.967 0-44.062 15.888-84.405 42.245-115.629 18.579-22.001 42.355-39.468 69.443-50.516 20.872-8.508 43.714-13.195 67.651-13.195s46.78 4.687 67.652 13.196c27.088 11.047 50.864 28.514 69.443 50.516 26.358 31.223 42.246 71.566 42.246 115.628z" fill="#f4dd45"/><g fill="#e7a52e"><path d="m312.433 303.31c-2.389 0-4.744-1.105-6.257-3.186l-55.634-76.574c-2.508-3.452-1.742-8.284 1.71-10.792 3.453-2.508 8.284-1.742 10.792 1.71l55.634 76.574c2.508 3.452 1.743 8.284-1.709 10.792-1.372.996-2.962 1.476-4.536 1.476z"/><path d="m149.228 295.44c-1.574 0-3.163-.479-4.535-1.476-3.452-2.509-4.218-7.34-1.71-10.792l44.196-60.832c2.508-3.453 7.34-4.219 10.792-1.71s4.218 7.34 1.71 10.792l-44.196 60.832c-1.511 2.081-3.867 3.186-6.257 3.186z"/><path d="m185.04 173.116c-.791 0-1.595-.122-2.388-.38l-97.423-31.645c-4.058-1.318-6.28-5.677-4.962-9.735 1.318-4.059 5.675-6.281 9.735-4.962l97.423 31.645c4.058 1.318 6.28 5.677 4.962 9.735-1.061 3.266-4.09 5.342-7.347 5.342z"/><path d="m276.46 171.311c-3.257 0-6.286-2.076-7.346-5.342-1.319-4.058.902-8.417 4.961-9.735l86.308-28.035c4.06-1.317 8.418.902 9.735 4.962 1.319 4.058-.902 8.417-4.961 9.735l-86.308 28.035c-.794.258-1.597.38-2.389.38z"/><path d="m227.971 134.09c-4.267 0-7.726-3.459-7.726-7.726v-86.762c0-4.267 3.459-7.726 7.726-7.726s7.726 3.459 7.726 7.726v86.762c.001 4.267-3.458 7.726-7.726 7.726z"/></g><path d="m247.196 353.509c3.906.959 7.855 1.792 11.854 2.488-10.096 1.766-20.481 2.683-31.079 2.683-14.801 0-29.177-1.792-42.933-5.171-46.024-11.311-85.059-40.377-109.421-79.523-14.962-24.022-24.396-51.841-26.519-81.68-.314-4.28-.467-8.602-.467-12.967 0-44.062 15.888-84.405 42.245-115.629 18.579-22.001 42.356-39.468 69.443-50.516 20.873-8.507 43.715-13.194 67.652-13.194 10.597 0 20.983.917 31.079 2.683-12.703 2.216-24.94 5.774-36.573 10.513-27.088 11.047-50.864 28.514-69.443 50.516-26.358 31.223-42.245 71.566-42.245 115.629 0 4.365.153 8.687.467 12.967 2.123 29.839 11.557 57.657 26.519 81.68 24.362 39.144 63.397 68.211 109.421 79.521z" fill="#eab14d"/><g><g><path d="m295.623 13.196-67.652 49.157-40.954-29.763-26.697-19.394c20.872-8.509 43.714-13.196 67.651-13.196 10.589 0 20.957.917 31.028 2.675.017 0 .034.008.051.008 12.704 2.217 24.94 5.774 36.573 10.513z" fill="#e7a52e"/></g><g><path d="m116.707 143.192-67.609 49.115c-.314-4.28-.467-8.602-.467-12.967 0-44.062 15.888-84.405 42.245-115.629z" fill="#df8621"/></g><g><path d="m185.038 353.509c-46.024-11.311-85.059-40.377-109.421-79.523h83.59l13.204 40.657z" fill="#e7a52e"/></g><g><path d="m380.326 273.987c-24.362 39.146-63.397 68.212-109.421 79.523l25.831-79.523z" fill="#e7a52e"/></g><g><path d="m407.312 179.34c0 4.365-.153 8.687-.467 12.967l-67.609-49.115 25.831-79.48c26.357 31.223 42.245 71.566 42.245 115.628z" fill="#e7a52e"/></g></g><path d="m172.412 314.644 12.627 38.866c-46.024-11.311-85.059-40.377-109.421-79.523h62.158c9.475 15.225 21.168 28.93 34.636 40.657z" fill="#df8621"/><path d="m259.05 2.683c-12.703 2.216-24.94 5.774-36.573 10.513-12.601 5.137-24.49 11.667-35.46 19.395l-26.697-19.395c20.872-8.509 43.714-13.196 67.651-13.196 10.589 0 20.957.917 31.028 2.675.017 0 .034.008.051.008z" fill="#df8621"/><path d="m227.971 103.613-72.021 52.327 27.51 84.666h89.023l27.51-84.666z" fill="#e7a52e"/><path d="m331.088 457.79h-206.234c-14.97 0-27.105 12.135-27.105 27.105 0 14.97 12.135 27.105 27.105 27.105h206.234c14.97 0 27.105-12.135 27.105-27.105 0-14.97-12.135-27.105-27.105-27.105z" fill="#f4dd45"/><path d="m174.663 504.056c4.904 4.914 11.682 7.943 19.161 7.943h-68.971c-7.489 0-14.258-3.029-19.161-7.943-4.914-4.904-7.943-11.672-7.943-19.161 0-14.969 12.135-27.104 27.104-27.104h68.971c-14.969 0-27.104 12.135-27.104 27.104 0 7.489 3.039 14.258 7.943 19.161z" fill="#eab14d"/><g><g><path d="m421.951 86.192 33.615-7.363c10.405-2.279 10.405-17.116 0-19.395l-33.615-7.363c-3.787-.829-6.744-3.787-7.573-7.573l-7.363-33.615c-2.279-10.405-17.116-10.405-19.395 0l-7.363 33.615c-.829 3.787-3.787 6.744-7.573 7.573l-33.615 7.363c-10.405 2.279-10.405 17.116 0 19.395l33.615 7.363c3.787.829 6.744 3.787 7.573 7.573l7.363 33.615c2.279 10.405 17.116 10.405 19.395 0l7.363-33.615c.828-3.786 3.786-6.744 7.573-7.573z" fill="#fbf4af"/></g></g><g><g><path d="m174.803 347.103 36.322-7.956c11.242-2.463 11.242-18.495 0-20.957l-36.322-7.956c-4.091-.896-7.287-4.092-8.183-8.183l-7.956-36.322c-2.463-11.242-18.495-11.242-20.957 0l-7.956 36.322c-.896 4.091-4.092 7.287-8.183 8.183l-36.322 7.956c-11.242 2.463-11.242 18.495 0 20.957l36.322 7.956c4.091.896 7.287 4.092 8.183 8.183l7.956 36.322c2.463 11.242 18.495 11.242 20.957 0l7.956-36.322c.896-4.091 4.092-7.287 8.183-8.183z" fill="#fbf4af"/></g></g></g></svg>