<svg xmlns="http://www.w3.org/2000/svg" width="14.08" height="11.44" viewBox="0 0 14.08 11.44"><defs><style>.a{fill:#fff;}</style></defs><path class="a" d="M2.2,12.175H.44a.44.44,0,0,0-.44.44v1.76a.44.44,0,0,0,.44.44H2.2a.44.44,0,0,0,.44-.44v-1.76A.44.44,0,0,0,2.2,12.175Zm0-8.8H.44a.44.44,0,0,0-.44.44v1.76a.44.44,0,0,0,.44.44H2.2a.44.44,0,0,0,.44-.44V3.815A.44.44,0,0,0,2.2,3.375Zm0,4.4H.44a.44.44,0,0,0-.44.44v1.76a.44.44,0,0,0,.44.44H2.2a.44.44,0,0,0,.44-.44V8.215A.44.44,0,0,0,2.2,7.775Zm11.44,4.84H4.84a.44.44,0,0,0-.44.44v.88a.44.44,0,0,0,.44.44h8.8a.44.44,0,0,0,.44-.44v-.88A.44.44,0,0,0,13.64,12.615Zm0-8.8H4.84a.44.44,0,0,0-.44.44v.88a.44.44,0,0,0,.44.44h8.8a.44.44,0,0,0,.44-.44v-.88A.44.44,0,0,0,13.64,3.815Zm0,4.4H4.84a.44.44,0,0,0-.44.44v.88a.44.44,0,0,0,.44.44h8.8a.44.44,0,0,0,.44-.44v-.88A.44.44,0,0,0,13.64,8.215Z" transform="translate(0 -3.375)"/></svg>