<svg xmlns="http://www.w3.org/2000/svg" width="24" height="24" viewBox="0 0 24 24">
  <g id="Group_1373" data-name="Group 1373" transform="translate(-5489 -13886)">
    <rect id="Rectangle_1668" data-name="Rectangle 1668" width="24" height="24" rx="4" transform="translate(5489 13886)" fill="#fff" opacity="0.2"/>
    <g id="group_add-24px" transform="translate(5489 13886)">
      <path id="Path_831" data-name="Path 831" d="M0,0H24V24H0Z" fill="none"/>
      <path id="Path_832" data-name="Path 832" d="M5,15V12H8V10H5V7H3v3H0v2H3v3Zm7-1.25c-2.34,0-7,1.17-7,3.5V19H19V17.25C19,14.92,14.34,13.75,12,13.75ZM7.34,17A9.642,9.642,0,0,1,12,15.75,9.642,9.642,0,0,1,16.66,17ZM12,12A3.5,3.5,0,1,0,8.5,8.5,3.5,3.5,0,0,0,12,12Zm0-5a1.5,1.5,0,1,1-1.5,1.5A1.5,1.5,0,0,1,12,7Zm5,5a3.5,3.5,0,0,0,0-7,3.353,3.353,0,0,0-.71.07,5.418,5.418,0,0,1-.02,6.85A3.549,3.549,0,0,0,17,12Zm2.32,2.02A4.086,4.086,0,0,1,21,17.25V19h3V17.25C24,15.56,21.56,14.49,19.32,14.02Z" fill="#0db983"/>
    </g>
  </g>
</svg>
