<svg xmlns="http://www.w3.org/2000/svg" width="338.823" height="244.745" viewBox="0 0 338.823 244.745">
  <g id="Group_1290" data-name="Group 1290" transform="translate(-637.306 -780.763)">
    <circle id="Ellipse_191" data-name="Ellipse 191" cx="87.434" cy="87.434" r="87.434" transform="translate(686.529 780.763)" fill="#21293c"/>
    <path id="Path_288" data-name="Path 288" d="M794.328,1145.06c4.237-12.647,10.6-24.014,20.182-33.435,5.934,1.52,11.352,4.36,16.949,6.722,6.818,2.878,13.7,5.609,20.453,8.641a10.612,10.612,0,0,1,2.343,1.138c1.241.978,1.383,1.911-.214,2.682a4.878,4.878,0,0,1-1.231.428c-7.969,1.463-15.031,5-21.706,9.439a7.883,7.883,0,0,1-2.6,1.268,2.313,2.313,0,0,1-.511.218c.343.128.525-.235.833-.273a106.13,106.13,0,0,1,18.79-5.539,11.327,11.327,0,0,1,2.58-.388c.659.016,1.4.069,1.633.8.18.563-.323.983-.712,1.355a7.845,7.845,0,0,1-1.591,1.138c-6.419,3.621-10.665,9.127-13.776,15.769,6.757-5.7,13.814-10.669,22.21-13.416,6.129-2.005,12.008-1.888,17.414,2.127a5.616,5.616,0,0,0,2.331,1.143c4.48,2.286,7.548,6.873,7.109,10.613-1.182.616-2.077-.151-3-.661-1.807-1-3.483-2.218-5.295-3.2-6.423-3.478-13.141-1.422-16.19,4.91-1.953,6.042-1.868,12.268-1.353,18.449.309,3.7.439,7.377.418,11.07-.142,2.172-.142,4.351-.1,6.531.063,3.461-.4,3.843-3.4,2.409-5.017-2.4-10.046-4.789-14.9-7.5a148.582,148.582,0,0,1-29.832-21.655,98.427,98.427,0,0,1-14.272-17.413A15.908,15.908,0,0,0,794.328,1145.06Z" transform="translate(-115.527 -243.428)" fill="#2d3d51"/>
    <path id="Path_289" data-name="Path 289" d="M1488.609,1584.133a407.016,407.016,0,0,1-51.183-2.638,60.212,60.212,0,0,1-10.865-2.182c-1.255-.4-3.135-.582-3.048-2.4.073-1.519,1.726-1.776,2.948-2.165,5.638-1.794,11.495-2.442,17.335-3a468.848,468.848,0,0,1,57.436-1.862c15.439.434,30.911.849,46.162,3.756a22.7,22.7,0,0,1,3.785.969c1.354.512,3.492.6,3.387,2.479-.1,1.754-2.178,1.973-3.572,2.322a87.421,87.421,0,0,1-9.9,2.01c-9.828,1.275-19.713,1.875-29.615,2.322C1503.852,1584.094,1496.233,1584.1,1488.609,1584.133Z" transform="translate(-578.441 -580.452)" fill="#21293c"/>
    <path id="Path_290" data-name="Path 290" d="M1051.944,1315.854c-3.746-2.138-7.952-3.1-11.92-4.672-1.7-.671-3.388-1.351-5.082-2.028-.25-5.87-.585-11.737-.724-17.609-.111-4.678-.042-9.372,2.144-13.711,1.724-.236,2.5,1.09,3.4,2.127a128.082,128.082,0,0,0,25.029,22.357,103.551,103.551,0,0,0,12.064,6.525c2.466,1.221,3.4,2.8,3.093,5.7q-1.844,17.521-2.238,35.15a44.674,44.674,0,0,1-.812,6.782c-.74,4.166-2.434,8.03-3.891,12.074a397.1,397.1,0,0,1-8.76-42.365c-.148-5.454-3.931-7.116-8.4-8.171C1054.394,1317.67,1052.847,1317.289,1051.944,1315.854Z" transform="translate(-292.001 -365.694)" fill="#2b313a"/>
    <path id="Path_291" data-name="Path 291" d="M1082.958,1338.487a235.644,235.644,0,0,1,1.092-27.563c.431-5.379.367-10.8,1.358-16.136.35-1.885-1.261-2.333-2.509-2.917a96.615,96.615,0,0,1-19.418-11.8,125.473,125.473,0,0,1-18.671-18.04,22.75,22.75,0,0,0-2.392-2.187c3.036-6.275,10.779-8.366,17.212-4.641q3.791,2.195,7.57,4.41c8.088,5.506,16.287,10.841,24.267,16.519,5.1,3.627,6.063,7.908,4.951,13.5-1.633,8.209-3.825,16.276-5.854,24.385C1087.9,1322.136,1086.1,1330.519,1082.958,1338.487Z" transform="translate(-298.057 -347.707)" fill="#21262f"/>
    <path id="Path_292" data-name="Path 292" d="M809.086,1480.957a1.529,1.529,0,0,1-.066.476c-.293.93-1.533,1.023-2.452,1.364q-25.341,9.391-50.7,18.762l-.172.063q-2.735,1.023-5.473,2.03-5.724,2.121-11.453,4.22v-5.75l.589-.608q4.416-4.614,8.8-9.225c5.69-5.991,11.342-12.024,17.005-18.036.209-1.308.936-1.52,1.718-1.467.47.029.962.153,1.377.2,9.44.965,18.9.7,28.353.531,2.18-.037,4.358-.069,6.538-.079,2.925-.013,4.445.69,4.72,3.705a12.572,12.572,0,0,0,1.075,3.015A2.967,2.967,0,0,1,809.086,1480.957Z" transform="translate(-74.652 -509.143)" fill="#2b313a"/>
    <path id="Path_293" data-name="Path 293" d="M1463.542,1243.072c-.621-1.387-1.366-2.722-1.929-4.13-1.263-3.161-3.594-4.281-6.918-4.257-13.052.087-24.682,4.4-35.337,11.659-1.141.777-2.629,1.85-2.867,3.008-.872,4.276-4.4,4.764-7.534,5.94-1.015.381-2,.83-3,1.247a38.126,38.126,0,0,0,5.673,9.27c.029.04.2-.026.307-.042,1.321-.457,2.619-1.012,3.969-1.345,1.184-.291,2.323-1.638,3.594-.626,1.85,1.477,4.144,1.665,6.221,2.473,13.958.079,26.691-3.348,37.24-13.017C1465.289,1249.98,1465.1,1246.561,1463.542,1243.072Zm-9-1.231a25.573,25.573,0,0,1-8.361,5.6,56.472,56.472,0,0,1-20.842,5.594c-1.786-.391-4.479.267-5.24-2.109-.735-2.3,1.472-3.663,3.126-4.836a53.3,53.3,0,0,1,27.383-9.532,10.943,10.943,0,0,1,2.268.262c1.2.166,2.447.378,3,1.636C1456.524,1239.957,1455.4,1240.9,1454.539,1241.841Z" transform="translate(-565.523 -333.967)" fill="#0db983"/>
    <path id="Path_294" data-name="Path 294" d="M943.312,1106.631l-5.85,2.023a11.636,11.636,0,0,1-5.837-3.815c-8.685-10.169-20.312-15.442-32.383-20.143-7-2.727-13.913-5.7-20.759-8.808-1.1-.5-2.668-.654-2.48-2.487l3.231-3.393c3.063-1.484,5.037-4.314,7.739-6.242.844-.6,1.411-1.719,2.714-1.49,5.7,2.763,10.29,7.125,15.311,10.847,4,2.962,7.952,5.991,11.914,9.007,7.985,6.4,15.867,12.919,23.462,19.774C941.753,1103.149,944.171,1103.927,943.312,1106.631Z" transform="translate(-175.607 -207.097)" fill="#1d2535"/>
    <path id="Path_295" data-name="Path 295" d="M872.115,1104.458c2.691,2.529,6.3,3.232,9.526,4.648,8.853,3.891,17.832,7.492,26.744,11.25a49.516,49.516,0,0,1,14.562,9.745c3.488,3.264,6.562,6.984,10.627,9.611q0,.349-.007.7c-2.819-.853-4.813-3.211-7.755-3.974-5.528-1.433-10.544.106-15.454,2.233a65.9,65.9,0,0,0-18.568,12.453,20.335,20.335,0,0,1-1.677,1.158,36.558,36.558,0,0,1,17.393-20.653c-8,.614-15.357,3.593-22.956,5.561-.678.229-.813-.062-.631-.657,6.909-4.535,13.926-8.833,22.094-10.816,1.63-.4,3.412-.322,5.428-1.641-5.328-2.274-10.257-4.395-15.2-6.483-7.79-3.291-15.594-6.55-23.377-9.858a15,15,0,0,1-2.16-1.381Z" transform="translate(-171.719 -238.155)" fill="#2c3744"/>
    <path id="Path_296" data-name="Path 296" d="M954.659,1012.612c-9.129-6.539-18.02-13.393-26.831-20.352,4.226-1.79,7.521-5.036,11.484-7.271,14.763-8.323,30.267-14.462,47.121-17,9.409-1.415,18.692-1.336,27.873,1.365,1,2.311,2.338,4.482,2.821,7,.833,4.636,2.746,8.931,4.394,13.28,3.5,9.246,3.183,18.789,2.508,28.329-.323,4.568-.214,9.114-.323,13.669-.045,1.849,1.054,2.964,2.389,4.014,5.64,4.434,11.43,8.673,17.074,13.1.929.729,2.069,1.241,2.558,2.433,2.691,1.615,2.073,3.607.652,5.692-2.883,1.928-4.588,5.343-8.128,6.448-5.333-1.722-10.014-4.751-14.816-7.515a129.272,129.272,0,0,1-17.616-12.39c-10.131-8.34-13.475-19.116-11.9-31.776.839-6.759,1.441-13.563,4.022-20.425-1.808,1.621-3.111,3.059-4.478,4.434-.669.673-1.294,1.734-2.42,1.269-1.225-.506-1.058-1.765-1.038-2.846.014-.762.251-1.5.335-2.3-2.639,2.378-4.035,4.8-4.512,9.188-.3,2.774-1.612,3.9-4.184,4.533-5.352,1.318-10.368-.019-15.412-1.441-1.257-.355-2.48-.826-4.16-1.386a76.591,76.591,0,0,0,10.321,7.906c.889.593,2.283,1.182,1.88,2.354-.461,1.339-2,1.044-3.173.884a43.54,43.54,0,0,1-8.21-2.133C957.95,1009.995,957.942,1010.017,954.659,1012.612Z" transform="translate(-213.748 -137.082)" fill="#2d3d51"/>
    <path id="Path_297" data-name="Path 297" d="M1225.659,840.117c-7.58-1.831-14.758-4.551-20.894-9.534-1.083-.879-2.377-1.749-1.9-3.473s2.1-1.782,3.429-2.013c6.325-1.1,12.666-2.2,19.115-2.017,1.944.056,2.837-.678,3.674-2.348,3.245-6.47,7.787-11.827,14.34-15.166a26.248,26.248,0,0,1,19.06-1.794c1.669.431,3.151,1.045,4.384-1.138,1.042-1.844,3.2-1.676,5.038-1.146a3.537,3.537,0,0,1,2.713,3.675c-.205,2.365,1.106,3.153,2.825,4.083,6.03,3.262,10.89,7.62,12.635,14.594a21.135,21.135,0,0,1-.189,11.279,3.305,3.305,0,0,0,1.178,3.915,91.641,91.641,0,0,1,13.76,14.778,4.077,4.077,0,0,1,1.359,4.905c-.816,2.376-3.064,2.339-5.084,2.559-7.416.146-14.789-.091-21.887-2.6a40.053,40.053,0,0,1-9.992-4.8,48.051,48.051,0,0,0-12.557-6.234,6.036,6.036,0,0,1-4.367-4.026,8.3,8.3,0,0,0-.712-1.47c-3.012-5.343-5.93-5.7-10.122-1.264-.74.784-1.285,1.783-2.351,2.234C1234.452,842.909,1229.824,842.55,1225.659,840.117Z" transform="translate(-416.029 -14.986)" fill="#2d3d51"/>
    <path id="Path_298" data-name="Path 298" d="M1520.415,1007.114c5.3-.67,5.769-1.483,3.852-6.66,11.052-.2,21.331,3.267,31.637,6.627,2.4.782,1.6,2.064.587,3.4a173.375,173.375,0,0,0-17.953,29,52.622,52.622,0,0,0-5,14.382c-.2,1.209-.581,2.385-1.941,1.994-3.5-1.01-7.186.171-10.636-1.061a5.93,5.93,0,0,1-4.742.558c-2.484-.528-5-.293-7.5-.477-.991-.073-2.03-.224-2.515-1.236-.567-1.184.483-1.785,1.128-2.441,1.529-1.558,3.162-3.037,4.061-5.076.94-2.134.305-3.065-2.05-3.044a18.546,18.546,0,0,0-4.8.934c-3.38.944-3.8.551-3.406-3,.049-.434.071-.868.1-1.3a86.313,86.313,0,0,1,11.176-28.955C1514.432,1007.412,1517.265,1007.25,1520.415,1007.114Z" transform="translate(-635.467 -161.629)" fill="#ddd"/>
    <path id="Path_299" data-name="Path 299" d="M1291.906,1075.653c-5.62-2.734-9.851-7.4-14.994-10.8-1.172-.775-2.11-1.959-3.345-2.574-4.252-2.118-5.014-5.588-4.673-9.953.473-6.053.282-12.158.748-18.213.723-9.4-1.973-18.039-5.275-26.595a25.835,25.835,0,0,1-1.939-7.185c1.843.11,2,1.743,2.541,2.934,2.485,5.425,4.759,10.943,7.211,16.383.625,1.387,1.276,2.455,3.028,2.424,1.984-.036,2.3,1.233,2,2.87a26.509,26.509,0,0,1-2.821,7.6c1.563.033,2.758-1.048,4-.329,2.586,2.825,3.264,6.561,4.662,9.934,3.416,8.246,3.387,8.323,11.943,5.906,6.376-1.8,12.77-3.539,19.147-5.335,1.552-.437,3.128-1.091,4.672.056-.195,5.4-1.975,10.529-2.8,15.823-.313,2.011-.943,4.02.178,5.984-1.219.648-2.945.595-2.861,2.809.048,1.262-1.468,1.371-2.459,1.714Q1301.395,1072.394,1291.906,1075.653Z" transform="translate(-459.928 -161.549)" fill="#2c3744"/>
    <path id="Path_300" data-name="Path 300" d="M1272.415,1003.687c-1.826-.076-3.053,1.6-5.13,1.7.721-3.239,2.792-5.875,3.257-9.088.243-1.68.795-2.972-1.764-2.1-2.052.7-2.341-1.065-2.875-2.277-2.671-6.055-5.274-12.14-7.937-18.2a17.891,17.891,0,0,0-1.348-2.184c-.192-2.307-2.7-3.923-1.943-6.514a27.8,27.8,0,0,0,3.532-2.716c1.559-1.633,2.887-1.347,4.3.063,4.365,1.82,6.9,5.716,10.054,8.9.822.832,1.484,1.841,2.286,2.716a30.013,30.013,0,0,1,5.483,11.595c.578,2.965.7,5.781-1.235,8.335-.9,1.185-.457,2.189.374,3.2a29.254,29.254,0,0,1,2.22,2.344c-.242,3.4-2,4.814-4.742,3.491C1275.083,1002.053,1274.054,1004.378,1272.415,1003.687Z" transform="translate(-454.117 -132.752)" fill="#1d2535"/>
    <path id="Path_301" data-name="Path 301" d="M1460.414,1174.095c-.827-.271-2.264.077-1.908-1.514,1.508-6.731,2.068-13.67,4.409-20.219a8.221,8.221,0,0,1,7.807-3.1l-.43,4.146c2.6-.538,4.9-1.767,7.457-1.925,1.311-.081,2.73-.382,3.628.771,1.056,1.357.08,2.7-.538,3.921-1.336,2.641-3.692,4.439-6.313,6.848l15.116,1.2a22.457,22.457,0,0,1-14.643,8.3C1470.161,1173.208,1465.278,1173.583,1460.414,1174.095Z" transform="translate(-604.148 -271.054)" fill="#1e2430"/>
    <path id="Path_302" data-name="Path 302" d="M1333.658,1312.909c2.843-1.728,4.215-5.376,7.882-6.026a15.771,15.771,0,0,1,7.8,2.776,33.6,33.6,0,0,1,5.979,9.226c-.364,6.155-2.178,8.43-8.24,9.945a88.557,88.557,0,0,1-8.916,1.75,6.307,6.307,0,0,1-6.514-2.739,1.006,1.006,0,0,1-.05-.638c1.82-5.523,1.821-5.523-2.595-8.906C1329.25,1315.376,1331.537,1314.214,1333.658,1312.909Z" transform="translate(-508.911 -387.087)" fill="#1e2430"/>
    <path id="Path_303" data-name="Path 303" d="M1296.311,965.008a111.594,111.594,0,0,0-11.606-11.861c1.061-1.318,2.057-2.653,1.242-4.489l13.649,2.465a64.488,64.488,0,0,1-.61,11.12A2.8,2.8,0,0,1,1296.311,965.008Z" transform="translate(-476.317 -123.527)" fill="#0f131e"/>
    <path id="Path_304" data-name="Path 304" d="M916.474,1225.829l.631.657a2.589,2.589,0,0,1-2.153,1.021C914.994,1226.473,915.768,1226.181,916.474,1225.829Z" transform="translate(-204.276 -327.452)" fill="#b3bbce"/>
    <path id="Path_305" data-name="Path 305" d="M1113.2,1123.738l-4.552,5.218c-1.07,1.18-1.867,2.927-3.99,1.918q-12.607-7.422-25.218-14.837c-3.182-1.864-6.435-3.612-9.606-5.495a19.968,19.968,0,0,1-8.969-11.563c-1.244-3.932-1.245-4-4.709-1.529-1.818-4.174-5.935-6.08-9.047-8.931-5.719-5.239-11.811-10.072-17.747-15.074,1.617-4.066,1.622-4.081,6.258-2.5,4.187,1.43,8.341,2.986,13.734,3.139-5.4-3.948-10.616-6.829-14.779-11.788,2.6.15,4.4,1.184,6.328,1.733,5.127,1.458,10.252,2.829,15.655,1.432,1.815-.47,2.953-1.014,3.059-3.357.214-4.718,2.59-8.558,6.018-12.01,1.24,2.516-1.027,4.822.318,7.47l7.125-7.8.885.595a84.133,84.133,0,0,0-3.673,15.257c-.96,7.442-1.95,15-.126,22.326,1.643,6.595,6.2,11.62,11.327,15.993C1091.073,1112.11,1101.934,1118.25,1113.2,1123.738Z" transform="translate(-288.45 -197.916)" fill="#2c3744"/>
    <path id="Path_306" data-name="Path 306" d="M1311.672,1351.348c1.679.086,2.33-1.964,3.99-1.918,5.332,1.861,6.125,4.887,2.545,9.715-1.5,0-3.091.321-4.488-.061C1310.673,1358.252,1309.894,1354.958,1311.672,1351.348Z" transform="translate(-495.466 -418.39)" fill="#0b9668"/>
    <path id="Path_307" data-name="Path 307" d="M1493.511,1247.033a25.571,25.571,0,0,1-8.361,5.6,56.473,56.473,0,0,1-20.843,5.594c-1.786-.391-4.479.267-5.24-2.109-.735-2.3,1.472-3.662,3.126-4.836a53.3,53.3,0,0,1,27.383-9.532,10.939,10.939,0,0,1,2.267.262c1.205.166,2.447.378,3,1.636C1495.5,1245.149,1494.37,1246.1,1493.511,1247.033Z" transform="translate(-604.495 -339.16)" opacity="0.26"/>
    <path id="Path_308" data-name="Path 308" d="M1371.343,957.268a2.084,2.084,0,0,1-.083,2.694c-6.235,8.557-13.353,16.254-22.767,21.336a12.8,12.8,0,0,1-12.664.171c-4.073-2.816-4.222-3.286-2.032-7.5,1.449-2.788.531-5.546-.138-8.238a27.832,27.832,0,0,0-5.034-9.759,6.249,6.249,0,0,0,2.107-5.716,14.557,14.557,0,0,1,1.178-8.168,5.281,5.281,0,0,1,.293-.582c1.7-2.571,3.5-5.4,6.976-5.108,3.4.284,5.129,3.168,6.207,6.042a5.729,5.729,0,0,0,4.185,3.893,40.67,40.67,0,0,1,10.834,5.2A62.486,62.486,0,0,0,1371.343,957.268Z" transform="translate(-508.63 -114.492)" fill="#ffc4a4"/>
    <path id="Path_309" data-name="Path 309" d="M770.182,1597.02h-27.5a3.909,3.909,0,0,1-3.908-3.908v-11.6h15.906c.4,0,.8.013,1.192.045a15.493,15.493,0,0,1,14.312,15.459Z" transform="translate(-74.652 -589.145)" fill="#2e343d"/>
    <path id="Path_310" data-name="Path 310" d="M1200.445,1595.964h-27.5a3.908,3.908,0,0,1-3.907-3.907v-11.6h15.9c.4,0,.8.013,1.194.046A15.5,15.5,0,0,1,1200.445,1595.964Z" transform="translate(-391.215 -588.367)" fill="#2e343d"/>
    <path id="Path_311" data-name="Path 311" d="M886.891,1331.3l-2.973,21.654-.066.476-13.884-2.849-28.252-5.8-.039-.008-1.195-45.976,22.1,15.478Z" transform="translate(-149.484 -381.137)" fill="#2b313a"/>
    <path id="Path_312" data-name="Path 312" d="M856.344,1374.39l-2.973,21.653a1.533,1.533,0,0,1-.066.476c-.293.93-1.533,1.023-2.452,1.364q-25.341,9.39-50.7,18.762l-.172.063-1.02-.108,40.458-22.93,2.542-1.44L840.9,1388.6l-9.13-31.109.267-.124Z" transform="translate(-118.936 -424.229)" fill="#21262f"/>
    <path id="Path_313" data-name="Path 313" d="M644.555,1663.746c7.272-7.452-7.249-15.5-7.249-15.5.4,0,.8.013,1.192.045a15.5,15.5,0,0,1,14.312,15.459Z" transform="translate(0 -638.238)" fill="#21262f"/>
    <path id="Path_314" data-name="Path 314" d="M770.182,1627.524h-27.5a3.909,3.909,0,0,1-3.908-3.908v-.605c.164-.021.251-.034.251-.034H769.5A15.472,15.472,0,0,1,770.182,1627.524Z" transform="translate(-74.652 -619.649)" fill="#21262f"/>
    <path id="Path_315" data-name="Path 315" d="M1534.739,1258.838l-20.752,2.064,16.124,1.932S1533.942,1260.35,1534.739,1258.838Z" transform="translate(-645.008 -351.738)" fill="#fefefe" opacity="0.04"/>
    <path id="Path_316" data-name="Path 316" d="M1555.071,1279.492l-3.721.37,2.891.347A3.464,3.464,0,0,0,1555.071,1279.492Z" transform="translate(-672.498 -366.934)" fill="#fefefe" opacity="0.17"/>
  </g>
</svg>
