<svg xmlns="http://www.w3.org/2000/svg" width="19.92" height="23.542" viewBox="0 0 19.92 23.542"><defs><style>.a{fill:#fff;}</style></defs><path class="a" d="M15.642,7.476a8.181,8.181,0,0,1,1.353.253,5.767,5.767,0,0,1,4.4,5.651V20.6l.527.53.441.443H8.811l.441-.443.527-.53V13.38a5.767,5.767,0,0,1,4.4-5.651,10.018,10.018,0,0,1,1.353-.253m.057-4.1a1.73,1.73,0,0,0-1.758,1.766v.824A7.629,7.629,0,0,0,7.968,13.38v6.474L5.625,22.208v1.177h19.92V22.208L23.2,19.854V13.38a7.629,7.629,0,0,0-5.859-7.416V5.141a1.73,1.73,0,0,0-1.758-1.766Zm2.343,21.187H13.241a2.344,2.344,0,1,0,4.687,0Z" transform="translate(-5.625 -3.375)"/></svg>