<svg xmlns="http://www.w3.org/2000/svg" width="20.929" height="23.542" viewBox="0 0 20.929 23.542">
  <g id="Group_1080" data-name="Group 1080" transform="translate(-1485.071 -37.024)">
    <path id="Icon_ionic-md-notifications-outline" data-name="Icon ionic-md-notifications-outline" d="M15.642,7.476a8.181,8.181,0,0,1,1.353.253,5.767,5.767,0,0,1,4.4,5.651V20.6l.527.53.441.443H8.811l.441-.443.527-.53V13.38a5.767,5.767,0,0,1,4.4-5.651,10.018,10.018,0,0,1,1.353-.253m.057-4.1a1.73,1.73,0,0,0-1.758,1.766v.824A7.629,7.629,0,0,0,7.968,13.38v6.474L5.625,22.208v1.177h19.92V22.208L23.2,19.854V13.38a7.629,7.629,0,0,0-5.859-7.416V5.141a1.73,1.73,0,0,0-1.758-1.766Zm2.343,21.187H13.241a2.344,2.344,0,1,0,4.687,0Z" transform="translate(1479.446 33.649)" fill="#fff"/>
    <circle id="Ellipse_28" data-name="Ellipse 28" cx="3.5" cy="3.5" r="3.5" transform="translate(1499 45)" fill="#fe6140"/>
  </g>
</svg>
