<svg xmlns="http://www.w3.org/2000/svg" width="48" height="48" viewBox="0 0 48 48"><defs><style>.a{fill:rgba(255,255,255,0.11);stroke:#fff;stroke-width:1.5px;}.b{fill:#fff;}.c{stroke:none;}.d{fill:none;}</style></defs><g transform="translate(-1133 -755)"><g class="a" transform="translate(1133 755)"><rect class="c" width="48" height="48" rx="24"/><rect class="d" x="0.75" y="0.75" width="46.5" height="46.5" rx="23.25"/></g><path class="b" d="M24.6,13.845,17.15,6.877a.381.381,0,0,0-.3-.127c-.232.011-.528.174-.528.422v3.495a.226.226,0,0,1-.19.216C8.729,12.019,5.609,17.562,4.506,23.316c-.042.227.264.438.407.259C7.615,20.17,10.9,17.947,16.1,17.9a.261.261,0,0,1,.222.253V21.59a.453.453,0,0,0,.765.28l7.5-7.09a.583.583,0,0,0,.185-.443A.707.707,0,0,0,24.6,13.845Z" transform="translate(1142.863 763.804)"/></g></svg>