<?xml version="1.0" standalone="no"?>
<!DOCTYPE svg PUBLIC "-//W3C//DTD SVG 20010904//EN"
 "http://www.w3.org/TR/2001/REC-SVG-20010904/DTD/svg10.dtd">
<svg version="1.0" xmlns="http://www.w3.org/2000/svg"
 width="39.000000pt" height="36.000000pt" viewBox="0 0 39.000000 36.000000"
 preserveAspectRatio="xMidYMid meet">

<g transform="translate(0.000000,36.000000) scale(0.100000,-0.100000)"
fill="#000000" stroke="none">
<path d="M0 180 l0 -180 195 0 195 0 0 180 0 180 -195 0 -195 0 0 -180z m187
30 c6 0 16 7 23 15 7 9 15 13 18 10 3 -3 -3 -14 -13 -25 -17 -19 -17 -21 -2
-38 26 -28 20 -39 -6 -14 l-24 22 -18 -20 c-10 -11 -20 -18 -23 -15 -3 3 3 14
13 25 17 19 17 21 2 38 -23 25 -22 39 1 19 10 -10 23 -17 29 -17z"/>
</g>
</svg>
