<svg id="Capa_1" enable-background="new 0 0 510 510" height="512" viewBox="0 0 510 510" width="512" xmlns="http://www.w3.org/2000/svg"><g><g><path d="m255 510c-140.61 0-255-114.39-255-255s114.39-255 255-255 255 114.39 255 255-114.39 255-255 255z" fill="#ffdf40"/></g><path d="m510 255c0-140.61-114.39-255-255-255v510c140.61 0 255-114.39 255-255z" fill="#ffbe40"/><g><g><path d="m371.909 418.433-116.909-61.465-116.909 61.465 22.339-130.166-94.6-92.197 130.723-18.999 58.447-118.448 58.447 118.447 130.723 18.999-94.6 92.197z" fill="#ffbe40"/></g></g><path d="m371.909 418.433-22.339-130.166 94.6-92.198-130.723-18.999-58.447-118.447v298.345z" fill="#ff9f40"/></g></svg>