<svg width="220" height="182" viewBox="0 0 220 182" fill="none" xmlns="http://www.w3.org/2000/svg">
<circle cx="110" cy="91" r="91" fill="#161E2D"/>
<path d="M11.5168 146.648C11.5168 148.614 13.1216 150.225 15.0849 150.225H207.985C209.948 150.225 211.553 148.614 211.553 146.648L213.158 35.4151C213.158 33.4486 210.849 29.608 206.616 29.8958L18.093 25.0034C15.6312 24.9383 13.2513 25.8908 11.5066 27.6346C9.76182 29.3785 8.80921 31.763 8.86725 34.2297L11.5168 146.648Z" fill="#0E161E"/>
<path d="M15.0403 143.215C15.0403 145.079 16.5597 146.6 18.4137 146.6H203.331C205.188 146.6 206.704 145.075 206.704 143.215L208.22 42.2363C208.043 36.1586 202.733 33.9762 199.513 34.1064L18.8337 29.2449C17.1026 29.1969 15.4329 29.8684 14.2072 31.0915C12.9814 32.318 12.3088 33.9968 12.3531 35.7303L15.0403 143.215Z" fill="#141C26"/>
<path d="M1.92914 159.458H218.067C219.129 159.458 219.997 158.588 219.997 157.522V151.622C219.997 150.557 219.129 149.687 218.067 149.687H1.92914C0.867257 149.687 0 150.557 0 151.622V157.522C0 158.584 0.867257 159.458 1.92914 159.458Z" fill="#0E161E"/>
<path d="M89.7063 30.9647V146.644H17.9083C17.9083 146.644 14.9241 146.189 14.9241 141.697L12.3531 35.7303C12.3531 35.7303 12.1107 29.2654 19.059 29.31L89.7063 30.9647Z" fill="#1A232D"/>
<path d="M71.8833 167.454C70.3161 167.591 67.5982 167.81 65.4574 167.906C64.1702 167.965 63.4292 167.838 62.999 167.667C62.999 167.714 63.0024 167.759 63.0024 167.804C63.0127 168.03 63.1971 168.211 63.4224 168.225C67.4719 168.451 70.6917 168.304 71.8389 168.232C72.0745 168.218 72.2179 167.958 72.095 167.756C72.0369 167.653 71.9652 167.553 71.8833 167.454Z" fill="#1B2530"/>
<path d="M65.4574 167.906C67.6017 167.81 70.3195 167.591 71.8833 167.454C70.3434 165.559 65.4574 164.282 65.4574 164.282H64.078C63.1288 165.655 62.9922 166.961 63.0025 167.663C63.4259 167.834 64.1702 167.961 65.4574 167.906Z" fill="#141C26"/>
<path d="M63.8428 162.02L63.9725 164.586C63.9862 164.864 64.1945 165.097 64.471 165.138C64.7476 165.179 65.1163 165.183 65.509 165.052C65.7514 164.974 65.929 164.768 65.9734 164.521L66.4206 162.024H63.8428V162.02Z" fill="url(#paint0_linear)"/>
<path d="M47.8222 170.414C47.1427 170.291 46.8354 169.835 46.7057 169.345C46.7057 169.349 46.7057 169.356 46.7022 169.359C46.6032 169.876 46.8354 170.411 47.2964 170.664C47.8563 170.973 48.4675 171.024 48.9421 171C49.4508 170.973 49.9186 170.699 50.1781 170.26L50.1815 170.253C49.6728 170.579 48.9557 170.616 47.8222 170.414Z" fill="#141C26"/>
<path d="M51.0258 162.808H49.8888C48.1542 162.764 47.0651 167.505 46.71 169.342C46.8397 169.832 47.147 170.287 47.8265 170.411C48.96 170.616 49.6771 170.579 50.1892 170.25C51.1248 168.65 51.5891 166.31 51.8145 164.943C52.0637 163.391 51.0258 162.808 51.0258 162.808Z" fill="#141C26"/>
<path d="M50.0347 160.427L49.4031 162.949C49.3245 163.257 49.4748 163.579 49.7581 163.723C50.1132 163.905 50.6083 164.097 51.0659 164.042C51.281 164.014 51.4585 163.864 51.5302 163.661L52.4589 161.006L50.0347 160.427Z" fill="url(#paint1_linear)"/>
<path d="M72.2692 127.202C72.2692 127.202 66.6218 162.634 66.714 162.829C66.714 162.829 65.1536 163.542 63.4532 162.918C63.4532 162.918 63.9654 143.979 65.1604 136.716C65.1604 136.716 55.5182 153.644 52.4589 162.079C52.4589 162.079 50.8609 161.887 49.5396 161.013C49.5396 161.013 59.9193 130.542 62.6884 126.482L72.2692 127.202Z" fill="#0D1419"/>
<path d="M65.3858 136.592C65.4609 136.592 65.536 136.555 65.577 136.486L67.6359 133.187L69.0938 132.892C69.2168 132.868 69.2953 132.748 69.2714 132.625C69.2475 132.502 69.128 132.423 69.0051 132.447L67.4515 132.762C67.39 132.776 67.3354 132.81 67.3047 132.865L65.1946 136.25C65.1263 136.356 65.1604 136.497 65.2663 136.565C65.3038 136.582 65.3448 136.592 65.3858 136.592Z" fill="#090E11"/>
<path d="M98.1914 92.5098C98.1914 92.5098 94.381 93.3526 92.0626 94.4284C91.6017 94.6408 91.2363 95.0142 91.0246 95.4733C90.3315 96.9979 88.2556 100.818 84.2334 102.644C84.8138 103.415 85.746 105.022 86.1523 107.718C88.5697 105.912 90.6559 102.901 91.6563 97.9572C91.6563 97.9572 92.4177 98.3717 93.3703 97.9092C93.8722 97.666 94.4527 97.3165 94.8897 97.0424C95.3233 96.7718 95.6477 96.3469 95.774 95.8536C95.9413 95.1992 95.8423 94.6271 95.8423 94.0104L97.8022 93.4006C97.7988 93.4006 98.3895 93.1779 98.1914 92.5098Z" fill="url(#paint2_linear)"/>
<path d="M86.152 107.718C85.7457 105.022 84.8136 103.415 84.2331 102.644C81.7338 103.778 78.4833 104.138 74.3416 102.699C73.9592 102.565 73.5631 102.49 73.1568 102.466C70.9545 102.336 63.6887 102.099 57.6794 104.093C56.416 104.511 55.3917 105.45 54.8625 106.666C53.2372 110.411 50.6047 118.935 57.9115 123.238C58.4715 121.84 59.1202 120.716 59.6734 119.891C58.4954 117.9 58.1471 115.18 60.2367 111.637C61.7596 115.762 62.4732 121.782 62.6234 124.444C62.6712 125.321 62.5176 126.194 62.1761 127.006L62.1386 127.096C62.0669 127.27 62.1659 127.469 62.3503 127.51C66.4646 128.439 70.7428 128.185 72.0198 128.079C72.2486 128.058 72.4364 127.897 72.491 127.675C74.4919 119.219 74.4953 113.45 74.007 109.801C75.8815 110.219 81.6041 111.113 86.152 107.718Z" fill="#2A343D"/>
<path d="M74.0175 110.085C74.0277 110.085 74.038 110.085 74.0482 110.082C74.1711 110.065 74.2599 109.952 74.2429 109.825C73.7614 106.166 72.7917 104.6 72.7508 104.535C72.6825 104.429 72.5425 104.398 72.4366 104.463C72.3308 104.532 72.3 104.672 72.3649 104.778C72.3752 104.792 73.3244 106.341 73.7921 109.883C73.8092 110.003 73.9082 110.085 74.0175 110.085Z" fill="#212930"/>
<path d="M63.8666 97.5358C63.8666 97.5358 63.4501 101.952 63.0847 103.257C63.0301 103.456 63.1155 103.665 63.293 103.768C63.9144 104.124 65.4065 104.706 67.4449 103.703C67.7761 103.542 67.9741 103.196 67.9571 102.829L67.7761 98.5636L63.8666 97.5358Z" fill="url(#paint3_linear)"/>
<path d="M92.6738 97.5597C92.7387 97.5597 92.8036 97.5323 92.8514 97.4741C93.3977 96.7992 94.3298 95.7268 94.6542 95.5418C94.941 95.3808 95.1015 95.1992 95.1527 94.9834C95.1936 94.8018 95.1493 94.6134 95.0195 94.4215C94.9683 94.3461 94.8795 94.3085 94.7873 94.3256L93.1245 94.6613C93.0869 94.6682 93.0494 94.6853 93.0221 94.7127L92.1377 95.4733C92.0421 95.5555 92.0319 95.6994 92.1138 95.7953C92.1958 95.8913 92.3392 95.9016 92.4348 95.8193L93.2747 95.0964L94.7122 94.8087C94.7225 94.8498 94.7156 94.8737 94.7156 94.884C94.6986 94.9628 94.5961 95.0553 94.4356 95.1478C93.9337 95.4322 92.6465 97.0116 92.5031 97.1897C92.4246 97.2891 92.4382 97.4296 92.5372 97.5118C92.5714 97.5426 92.6226 97.5597 92.6738 97.5597Z" fill="url(#paint4_linear)"/>
<path d="M64.2624 126.249L70.2683 126.119C70.2683 126.119 65.0307 124.632 64.7063 125.04C64.7063 125.04 61.4592 122.899 59.6803 119.887C59.1272 120.713 58.4784 121.837 57.9185 123.234C59.5096 124.173 61.606 125.807 64.2624 126.249Z" fill="url(#paint5_linear)"/>
<path d="M64.092 125.208C64.092 125.208 63.969 127.609 67.1103 127.26C68.8175 127.072 71.5729 125.472 71.5729 125.472C71.5729 125.472 64.389 125.454 64.092 125.208Z" fill="url(#paint6_linear)"/>
<path d="M65.3211 125.852C65.3314 125.852 65.345 125.852 65.3553 125.852L80.2898 125.835C80.6586 125.835 80.9591 125.537 80.9591 125.17C80.9591 124.804 80.6586 124.502 80.2898 124.509L65.3553 124.526C64.9865 124.526 64.686 124.824 64.686 125.191C64.686 125.544 64.9694 125.835 65.3211 125.852Z" fill="#141C26"/>
<path d="M93.7151 112.391H81.2798C80.3614 112.391 79.5283 112.915 79.1356 113.741L73.3857 125.845H88.8427C89.4334 125.845 89.9661 125.485 90.1812 124.941L94.6404 113.741C94.8965 113.09 94.415 112.391 93.7151 112.391Z" fill="#0D1319"/>
<path d="M84.9501 118.596C84.6804 119.428 84.8784 120.233 85.394 120.398C85.9096 120.562 86.5446 120.021 86.8144 119.192C87.0841 118.359 86.8861 117.554 86.3705 117.39C85.8583 117.225 85.2199 117.763 84.9501 118.596Z" fill="#0DB983"/>
<path d="M68.7865 91.4066C68.8412 91.4957 70.323 98.3649 70.323 98.3649L66.3965 99.1289L64.0303 92.8284C64.0269 92.8284 67.8476 89.8958 68.7865 91.4066Z" fill="url(#paint7_linear)"/>
<path d="M65.4338 93.846L66.4206 97.2617C66.4342 97.3062 66.4513 97.3473 66.4752 97.385C66.622 97.6214 67.1854 98.3991 67.9468 97.7722C68.6365 97.2035 69.2716 96.693 69.835 96.6245C70.0877 96.5936 70.3233 96.7615 70.3779 97.0116C70.511 97.6351 70.7876 99.0467 70.8422 100.311C70.8525 100.568 70.6647 100.787 70.412 100.821C69.6472 100.921 68.0322 101.089 66.6972 100.917C66.5162 100.893 66.3625 100.777 66.2977 100.605C65.9733 99.7764 64.9865 97.2583 64.6007 96.6005C64.2388 95.9838 63.2725 95.9427 62.8662 95.9564C62.733 95.9598 62.6033 95.9084 62.5077 95.8159C62.1697 95.4836 61.5414 94.6476 62.5452 93.75C62.7569 93.5616 62.7672 93.2395 62.576 93.034C62.1901 92.6263 61.7941 91.9171 62.5213 91.112C63.2623 90.2897 64.1637 90.4816 64.7134 90.718C64.9353 90.8139 65.188 90.7317 65.3211 90.533C65.3963 90.4199 65.526 90.3377 65.7343 90.3685C66.0177 90.4097 66.2704 90.1835 66.2806 89.8992C66.3011 89.3476 66.5401 88.6624 67.5098 88.4191C69.2306 87.9874 70.1901 89.6868 70.2276 90.9167C70.2652 92.1466 68.3702 92.5064 67.2776 92.3625C66.4479 92.2528 65.7821 93.0443 65.5089 93.4314C65.4168 93.5445 65.3894 93.7021 65.4338 93.846Z" fill="#0D1419"/>
<path d="M64.9693 97.8373C64.9693 97.8373 64.8157 95.6994 63.9416 95.5453C63.0675 95.3911 62.1695 96.066 62.9753 97.3097C63.9825 98.8548 64.9693 97.8373 64.9693 97.8373Z" fill="url(#paint8_linear)"/>
<path d="M143.282 60.1956V57.2492C143.282 54.0698 145.86 51.4866 149.025 51.4866C152.19 51.4866 154.768 54.0733 154.768 57.2492V60.1956C154.782 60.2024 154.796 60.2059 154.806 60.2127C155.625 60.5622 156.407 60.9801 157.145 61.4632V57.2492C157.145 52.7577 153.501 49.1021 149.025 49.1021C144.549 49.1021 140.906 52.7577 140.906 57.2492V61.4598C141.643 60.9767 142.425 60.5587 143.245 60.2093C143.255 60.2059 143.269 60.2024 143.282 60.1956Z" fill="#0DB983"/>
<path d="M149.025 61.4255C142.135 61.4255 136.545 67.0305 136.545 73.9476C136.545 80.8613 142.131 86.4697 149.025 86.4697C155.919 86.4697 161.505 80.8648 161.505 73.9476C161.505 67.0305 155.919 61.4255 149.025 61.4255ZM148.042 78.2816L143.381 73.605L145.061 71.9194L148.038 74.9069L152.477 70.4531L154.157 72.1387L148.042 78.2816Z" fill="#0DB983"/>
<path d="M194.795 104.909H105.703C105.375 104.909 105.112 104.641 105.112 104.316V102.915C105.112 102.586 105.379 102.322 105.703 102.322H194.791C195.119 102.322 195.382 102.589 195.382 102.915V104.316C195.386 104.645 195.119 104.909 194.795 104.909Z" fill="#1A232D"/>
<path d="M194.795 111.678H105.703C105.375 111.678 105.112 111.411 105.112 111.086V109.684C105.112 109.356 105.379 109.092 105.703 109.092H194.791C195.119 109.092 195.382 109.359 195.382 109.684V111.086C195.386 111.411 195.119 111.678 194.795 111.678Z" fill="#1A232D"/>
<path d="M194.795 118.448H105.703C105.375 118.448 105.112 118.181 105.112 117.856V116.454C105.112 116.125 105.379 115.862 105.703 115.862H194.791C195.119 115.862 195.382 116.129 195.382 116.454V117.856C195.386 118.181 195.119 118.448 194.795 118.448Z" fill="#1A232D"/>
<path d="M194.795 125.215H105.703C105.375 125.215 105.112 124.947 105.112 124.622V123.221C105.112 122.892 105.379 122.628 105.703 122.628H194.791C195.119 122.628 195.382 122.895 195.382 123.221V124.622C195.386 124.951 195.119 125.215 194.795 125.215Z" fill="#1A232D"/>
<path d="M155.512 131.984H105.703C105.375 131.984 105.112 131.717 105.112 131.392V129.991C105.112 129.662 105.379 129.398 105.703 129.398H155.512C155.84 129.398 156.103 129.665 156.103 129.991V131.392C156.103 131.717 155.84 131.984 155.512 131.984Z" fill="#1A232D"/>
<path d="M78.9958 53.5731H24.6385C24.3108 53.5731 24.0479 53.3058 24.0479 52.9804V51.5791C24.0479 51.2502 24.3142 50.9864 24.6385 50.9864H78.9958C79.3236 50.9864 79.5865 51.2537 79.5865 51.5791V52.9804C79.5865 53.3058 79.3236 53.5731 78.9958 53.5731Z" fill="#171F28"/>
<path d="M78.9958 60.3395H24.6385C24.3108 60.3395 24.0479 60.0722 24.0479 59.7468V58.3455C24.0479 58.0166 24.3142 57.7528 24.6385 57.7528H78.9958C79.3236 57.7528 79.5865 58.02 79.5865 58.3455V59.7468C79.5865 60.0756 79.3236 60.3395 78.9958 60.3395Z" fill="#171F28"/>
<path d="M78.9958 67.1093H24.6385C24.3108 67.1093 24.0479 66.842 24.0479 66.5166V65.1153C24.0479 64.7864 24.3142 64.5226 24.6385 64.5226H78.9958C79.3236 64.5226 79.5865 64.7898 79.5865 65.1153V66.5166C79.5865 66.842 79.3236 67.1093 78.9958 67.1093Z" fill="#171F28"/>
<path d="M78.9958 73.8791H24.6385C24.3108 73.8791 24.0479 73.6118 24.0479 73.2864V71.8851C24.0479 71.5562 24.3142 71.2924 24.6385 71.2924H78.9958C79.3236 71.2924 79.5865 71.5597 79.5865 71.8851V73.2864C79.5865 73.6118 79.3236 73.8791 78.9958 73.8791Z" fill="#171F28"/>
<path d="M54.8287 80.6455H24.6385C24.3108 80.6455 24.0479 80.3783 24.0479 80.0528V78.6515C24.0479 78.3226 24.3142 78.0588 24.6385 78.0588H54.8287C55.1565 78.0588 55.4194 78.3261 55.4194 78.6515V80.0528C55.4194 80.3817 55.153 80.6455 54.8287 80.6455Z" fill="#171F28"/>
<defs>
<linearGradient id="paint0_linear" x1="63.8444" y1="163.589" x2="66.4196" y2="163.589" gradientUnits="userSpaceOnUse">
<stop stop-color="#FEBBBA"/>
<stop offset="1" stop-color="#FF928E"/>
</linearGradient>
<linearGradient id="paint1_linear" x1="49.3807" y1="162.242" x2="52.4583" y2="162.242" gradientUnits="userSpaceOnUse">
<stop stop-color="#FEBBBA"/>
<stop offset="1" stop-color="#FF928E"/>
</linearGradient>
<linearGradient id="paint2_linear" x1="91.7123" y1="97.1939" x2="79.471" y2="113.065" gradientUnits="userSpaceOnUse">
<stop stop-color="#FEBBBA"/>
<stop offset="1" stop-color="#FF928E"/>
</linearGradient>
<linearGradient id="paint3_linear" x1="64.5431" y1="107.478" x2="65.8853" y2="100.455" gradientUnits="userSpaceOnUse">
<stop stop-color="#FEBBBA"/>
<stop offset="1" stop-color="#FF928E"/>
</linearGradient>
<linearGradient id="paint4_linear" x1="120.328" y1="62.684" x2="103.206" y2="83.4581" gradientUnits="userSpaceOnUse">
<stop stop-color="#FEBBBA"/>
<stop offset="1" stop-color="#FF928E"/>
</linearGradient>
<linearGradient id="paint5_linear" x1="70.2241" y1="115.099" x2="65.8375" y2="121.657" gradientUnits="userSpaceOnUse">
<stop stop-color="#FEBBBA"/>
<stop offset="1" stop-color="#FF928E"/>
</linearGradient>
<linearGradient id="paint6_linear" x1="61.5148" y1="116.161" x2="65.813" y2="122.586" gradientUnits="userSpaceOnUse">
<stop stop-color="#FEBBBA"/>
<stop offset="1" stop-color="#FF928E"/>
</linearGradient>
<linearGradient id="paint7_linear" x1="67.4717" y1="92.2816" x2="66.2701" y2="105.596" gradientUnits="userSpaceOnUse">
<stop stop-color="#FEBBBA"/>
<stop offset="1" stop-color="#FF928E"/>
</linearGradient>
<linearGradient id="paint8_linear" x1="61.9407" y1="105.695" x2="63.9233" y2="96.6478" gradientUnits="userSpaceOnUse">
<stop stop-color="#FEBBBA"/>
<stop offset="1" stop-color="#FF928E"/>
</linearGradient>
</defs>
</svg>
