<svg width="187" height="190" viewBox="0 0 187 190" fill="none" xmlns="http://www.w3.org/2000/svg">
<circle cx="93" cy="91" r="91" fill="#161E2D"/>
<path d="M164.091 44.9797V144.027C164.091 146.683 162.37 146.877 160.165 146.991L105.547 150.474L6.47807 156.786L5.15886 156.872C2.31667 157.018 1.77631e-05 154.677 0.00538039 151.642L0.0697318 47.0403V38.4894C0.0697318 35.4552 2.3703 33.1024 5.21249 33.2268L5.39482 33.2376L42.2682 34.8494L160.171 40.0092C162.369 40.0957 164.091 42.3241 164.091 44.9797Z" fill="#171F2B"/>
<path d="M166.177 52.9087V143.93C166.177 146.591 164.455 148.841 162.251 148.949L105.836 151.805L7.19105 156.797C6.94437 156.808 6.70305 156.802 6.46174 156.775C3.96275 156.521 2.02148 154.325 2.02148 151.55L2.07511 47.565V46.7591L46.1291 48.4033L164.016 52.8167L166.177 52.9087Z" fill="#1F2938"/>
<path d="M166.177 44.7038V52.9086L164.032 52.8383L46.1506 49.009L2.08057 47.5758V46.7699L2.11274 38.2027C2.11274 35.8824 3.47485 33.9515 5.38394 33.2322C5.97383 33.0104 6.61735 32.9023 7.28767 32.9293L42.0589 34.4491L162.257 39.7171C164.455 39.809 166.177 42.0428 166.177 44.7038Z" fill="#2A384D"/>
<path d="M14.0715 40.2904C14.0715 41.6263 13.0579 42.6756 11.8084 42.6323C10.5536 42.5891 9.54004 41.4587 9.54004 40.1173C9.54004 38.776 10.5589 37.7268 11.8138 37.7754C13.0579 37.8241 14.0715 38.9545 14.0715 40.2904Z" fill="#3C4C60"/>
<path d="M153.087 90.2008L18.5331 89.9034C17.3105 89.9034 16.3237 88.9028 16.3237 87.6696V61.8869C16.3237 60.6321 17.348 59.6207 18.5975 59.6532L153.151 63.185C154.352 63.2174 155.307 64.2072 155.307 65.4187V87.9617C155.307 89.2002 154.315 90.2008 153.087 90.2008Z" fill="#2A384D"/>
<path d="M73.6823 143.648L18.6297 145.985C17.3694 146.039 16.3237 145.022 16.3237 143.757V104.112C16.3237 102.884 17.3051 101.889 18.5224 101.878L73.5751 101.472C74.8031 101.461 75.8059 102.467 75.8059 103.706V141.42C75.8059 142.615 74.8675 143.6 73.6823 143.648Z" fill="#2A384D"/>
<path d="M153.189 140.273L90.3655 142.935C89.1053 142.989 88.0596 141.972 88.0596 140.706V103.582C88.0596 102.354 89.0409 101.359 90.2582 101.348L153.081 100.888C154.309 100.877 155.312 101.883 155.312 103.122V138.045C155.307 139.24 154.374 140.225 153.189 140.273Z" fill="#2A384D"/>
<path d="M86.1074 76.7334C85.6677 76.3548 85.0563 76.2413 84.5147 76.4414L47.9148 89.8925C47.3732 90.0926 46.9817 90.5632 46.8852 91.1365C46.7887 91.7044 46.9978 92.2885 47.4375 92.6563L53.6046 97.8377C53.5938 97.8431 53.5831 97.8539 53.5724 97.8594C53.3632 98.0216 53.1595 98.1947 52.961 98.3732C49.2823 101.629 45.6089 104.885 41.9355 108.141C37.758 111.846 33.5752 115.551 29.3977 119.256C29.0437 119.569 28.8453 120.018 28.8507 120.489C28.8561 120.959 29.0652 121.408 29.4245 121.711C36.4495 127.655 43.4424 133.583 50.4138 139.484C50.4674 139.532 50.5318 139.576 50.5908 139.614C50.5908 139.614 52.9342 141.707 55.2831 138.618C54.6342 138.445 53.9424 138.234 53.4544 138.078C55.5565 134.724 57.6587 131.371 59.7662 128.028C63.0642 122.793 66.373 117.568 69.6924 112.349C69.8318 112.133 69.9605 111.911 70.0839 111.689L76.5888 117.152C76.5888 117.152 76.637 117.2 76.7389 117.26C76.8676 117.346 77.0017 117.411 77.1465 117.455C77.6505 117.628 78.5032 117.736 79.7527 117.271C81.946 116.454 81.9406 115.464 82.0265 115.042C82.0747 114.799 80.7126 114.583 79.5382 114.437L86.6329 78.2803C86.7509 77.7016 86.5471 77.112 86.1074 76.7334Z" fill="#18202B"/>
<path d="M71.9613 95.4472C68.3147 92.3859 61.4988 93.1323 56.3507 97.021C56.1416 97.1833 55.9378 97.3564 55.7394 97.5349C52.0606 100.791 48.3872 104.047 44.7138 107.303C40.5363 111.008 36.3535 114.713 32.176 118.417C31.8221 118.731 31.6236 119.18 31.629 119.651C31.6344 120.121 31.8435 120.57 32.2028 120.873C39.2278 126.817 46.2207 132.745 53.1921 138.646C53.546 138.948 54.0126 139.078 54.4684 139.002C54.9242 138.932 55.3318 138.662 55.5785 138.267C57.8951 134.567 60.2118 130.873 62.5392 127.179C65.8372 121.944 69.1459 116.719 72.4654 111.5C72.6102 111.278 72.7442 111.051 72.8729 110.824C75.8867 105.177 75.5864 98.4868 71.9613 95.4472Z" fill="#1B2330"/>
<path d="M88.8802 75.8951C88.4404 75.5165 87.8291 75.4029 87.2875 75.6031L50.6876 89.0542C50.1459 89.2543 49.7545 89.7249 49.6579 90.2982C49.5614 90.8661 49.7705 91.4502 50.2103 91.818L79.3615 116.308C79.7959 116.676 80.3911 116.779 80.922 116.589C81.4529 116.4 81.8498 115.94 81.9624 115.378L89.4057 77.4366C89.5237 76.8633 89.3199 76.2737 88.8802 75.8951Z" fill="#1B2330"/>
<path d="M55.4282 46.3156L62.5659 62.3683L63.558 62.7415C63.558 62.7415 62.9359 56.8029 62.7965 56.3864C62.657 55.9699 59.9757 47.4136 59.9757 47.4136L55.4282 46.3156Z" fill="#26264F"/>
<path d="M87.8399 11.5925L33.731 6.00542C32.7336 5.94592 31.9131 6.86538 31.9131 8.03364V43.7303C31.9131 44.931 32.7818 46.0019 33.8007 46.0506L83.3567 45.1744C84.5633 45.2231 90.7679 47.7921 90.7679 46.5265V11.8575C90.7732 10.554 89.1162 11.6736 87.8399 11.5925Z" fill="#26264F"/>
<path d="M89.5664 9.40743L34.5459 6.02165C33.5431 5.96216 32.7173 6.88162 32.7173 8.05528V43.8331C32.7173 45.0392 33.586 46.1101 34.6157 46.1587L56.9939 47.2188L63.547 62.7415L68.915 47.738L89.6522 48.8035C90.8964 48.863 91.867 47.9273 91.867 46.6563V11.8954C91.8724 10.5865 90.8481 9.48855 89.5664 9.40743Z" fill="#0DB983"/>
<path d="M47.9956 14.0425C48.4085 14.1183 48.741 14.5293 48.741 14.9674V16.4548C49.5669 16.617 50.3873 16.828 51.2132 17.093C51.8192 17.2877 52.4251 17.5149 53.0258 17.7636C53.3851 17.9151 53.6317 18.3099 53.5942 18.6993L53.4172 20.5491C53.369 21.0412 52.9024 21.2955 52.4627 21.0575C52.0658 20.8411 51.6636 20.6572 51.2454 20.4896C50.5214 20.2029 49.7546 19.9974 48.9502 19.8676L48.741 19.8351V24.1025C50.8914 24.8922 52.4627 25.8495 53.4816 26.9853C54.4951 28.1157 54.9938 29.4624 54.9938 31.0417C54.9938 32.7454 54.4361 34.0705 53.3207 35.0224C52.1946 35.9798 50.6179 36.4503 48.5694 36.4341V38.0783C48.5694 38.5164 48.2369 38.8301 47.824 38.7868H47.8133C47.4004 38.7435 47.0625 38.3487 47.0625 37.9106V36.288L46.73 36.2502C45.7701 36.1366 44.8478 35.9689 43.9683 35.7472C43.314 35.5849 42.6759 35.3848 42.0538 35.1522C41.6784 35.0116 41.421 34.6222 41.4532 34.222L41.6624 31.8314C41.7053 31.3121 42.2093 31.0471 42.6866 31.2797C43.239 31.5447 43.802 31.7773 44.3705 31.9774C45.2553 32.2857 46.1509 32.502 47.0572 32.6372L47.0679 27.8885C44.9979 27.2016 43.4481 26.2984 42.4292 25.1734C41.405 24.043 40.8901 22.6584 40.8901 21.0196C40.8901 19.3267 41.4479 18.0611 42.5579 17.2282C43.6626 16.4007 45.2285 16.0708 47.2502 16.2276V14.7024C47.2502 14.2643 47.5827 13.9722 47.9956 14.0425ZM47.2502 19.6837C46.6121 19.6837 46.1133 19.8297 45.7594 20.1164C45.4001 20.4084 45.2231 20.8195 45.2231 21.3604C45.2231 21.8688 45.3894 22.3069 45.7219 22.6746C46.0543 23.0424 46.5638 23.3507 47.2556 23.6049V19.6837H47.2502ZM48.5694 28.3807V32.7346C49.2612 32.7833 49.7921 32.6535 50.1621 32.3344C50.5321 32.0153 50.7145 31.5393 50.7145 30.9119C50.7145 30.3386 50.5429 29.8464 50.1997 29.4408C49.8618 29.0297 49.3148 28.6782 48.5694 28.3807Z" fill="white"/>
<path d="M62.9254 15.2216C63.333 15.2919 63.6601 15.703 63.6601 16.1411V17.623C64.4752 17.7799 65.2903 17.9962 66.1054 18.2612C66.706 18.4559 67.3013 18.6777 67.8965 18.9319C68.2505 19.0833 68.4918 19.4782 68.4596 19.8622L68.288 21.7011C68.2398 22.1879 67.7786 22.4421 67.3442 22.2041C66.9527 21.9931 66.5559 21.8038 66.143 21.6416C65.4244 21.3603 64.6683 21.1548 63.8746 21.025L63.6654 20.9926V25.2329C65.789 26.0171 67.3442 26.969 68.3524 28.0994C69.3498 29.219 69.8485 30.5657 69.8485 32.1342C69.8485 33.8271 69.2962 35.1468 68.1915 36.0933C67.0761 37.0452 65.5155 37.5158 63.4938 37.4996V39.1329C63.4938 39.5656 63.1614 39.8847 62.7538 39.8361H62.7431C62.3355 39.7928 62.003 39.398 62.003 38.9653V37.3535L61.6705 37.3048C60.7214 37.1913 59.8097 37.029 58.9356 36.8073C58.2921 36.645 57.6593 36.4503 57.0426 36.2177C56.6726 36.0771 56.4152 35.6877 56.4474 35.2929L56.6511 32.9131C56.694 32.3993 57.1928 32.1342 57.6647 32.3614C58.2117 32.6264 58.7694 32.859 59.3271 33.0537C60.2012 33.3566 61.086 33.5783 61.9816 33.7081L61.9923 28.9864C59.9491 28.305 58.4154 27.4071 57.4073 26.293C56.3937 25.1734 55.8843 23.7942 55.8843 22.1662C55.8843 20.4787 56.4366 19.224 57.536 18.3964C58.6299 17.5743 60.1797 17.2444 62.1746 17.4013V15.8869C62.1854 15.4434 62.5178 15.1513 62.9254 15.2216ZM62.1854 20.8303C61.5526 20.8303 61.0592 20.9763 60.7106 21.263C60.3567 21.5496 60.1797 21.9661 60.1797 22.4961C60.1797 22.9991 60.346 23.4372 60.6677 23.7996C60.9949 24.162 61.4989 24.4703 62.1854 24.7245V20.8303ZM63.4938 29.4732V33.8001C64.1803 33.8488 64.7058 33.719 65.0704 33.3998C65.4351 33.0807 65.6174 32.6102 65.6174 31.9828C65.6174 31.4095 65.4458 30.9227 65.108 30.5225C64.7701 30.1222 64.2285 29.7707 63.4938 29.4732Z" fill="white"/>
<path d="M77.6833 16.3845C78.0855 16.4548 78.4126 16.8658 78.4126 17.2985V18.7697C79.217 18.9265 80.0214 19.1374 80.8312 19.4025C81.4264 19.5972 82.0163 19.8189 82.6008 20.0677C82.9494 20.2192 83.1907 20.6086 83.1532 20.9926L82.9816 22.8207C82.9387 23.3075 82.4775 23.5562 82.0485 23.3237C81.6624 23.1127 81.2656 22.9289 80.858 22.7666C80.1501 22.4853 79.3994 22.2798 78.6164 22.15L78.4126 22.1176V26.3363C80.5148 27.1151 82.0539 28.0616 83.0459 29.1812C84.0327 30.2953 84.526 31.6313 84.526 33.1889C84.526 34.8764 83.9844 36.1853 82.8904 37.1264C81.7911 38.0729 80.2467 38.538 78.2464 38.5218V40.1498C78.2464 40.5825 77.9193 40.8962 77.5171 40.8529H77.5064C77.1042 40.8096 76.7717 40.4202 76.7717 39.9875V38.3812L76.4446 38.3433C75.5061 38.2297 74.6052 38.0675 73.7418 37.8511C73.1037 37.6889 72.4816 37.4942 71.8703 37.267C71.5002 37.1264 71.2482 36.7424 71.2804 36.3475L71.4841 33.984C71.527 33.4702 72.0204 33.2106 72.4816 33.4377C73.0232 33.7028 73.5702 33.9299 74.1279 34.1246C74.9913 34.4275 75.8654 34.6438 76.7502 34.7737L76.761 30.079C74.7393 29.4029 73.227 28.5105 72.2295 27.4018C71.2267 26.2876 70.7227 24.9192 70.7227 23.2966C70.7227 21.62 71.2696 20.3706 72.3529 19.5431C73.4308 18.7264 74.9645 18.3965 76.9433 18.5479V17.0389C76.954 16.6062 77.2811 16.3142 77.6833 16.3845ZM76.954 21.9607C76.3319 21.9607 75.844 22.1067 75.4954 22.3934C75.1468 22.6801 74.9698 23.0911 74.9698 23.6212C74.9698 24.1242 75.1307 24.5568 75.4525 24.9192C75.7742 25.2816 76.273 25.5845 76.954 25.8387V21.9607ZM78.2464 30.5604V34.8656C78.9221 34.9143 79.4423 34.7845 79.8069 34.4654C80.1662 34.1517 80.3485 33.6811 80.3485 33.0591C80.3485 32.4912 80.1823 32.0045 79.8445 31.6096C79.5066 31.204 78.9757 30.8578 78.2464 30.5604Z" fill="white"/>
<path d="M135.958 92.7753C135.872 93.0457 136.859 93.4622 137.438 92.348C137.46 91.8126 137.782 89.5247 137.465 89.0867C135.776 86.7664 132.505 83.8566 132.505 83.8566C131.952 84.4082 132.408 84.9491 132.408 84.9491L133.996 86.6149C133.663 87.2207 133.261 87.7291 133.068 88.4647C132.923 89.0163 133.014 89.6113 133.288 90.1143C133.567 90.6227 133.947 91.2771 134.307 91.7909C134.988 92.7699 135.958 92.7753 135.958 92.7753Z" fill="url(#paint0_linear)"/>
<path d="M134.688 87.6966L136.135 88.9352L136.591 90.1683L135.304 91.6124C135.304 91.6124 134.87 89.1678 134.548 88.6431C134.221 88.1077 134.387 87.8535 134.688 87.6966Z" fill="url(#paint1_linear)"/>
<path d="M164.359 183.823C164.359 183.823 164.724 185.911 164.906 187.972C164.976 188.778 164.359 189.481 163.554 189.513C160.83 189.627 154.996 189.848 152.904 189.757C152.588 189.74 152.384 189.416 152.502 189.124C152.599 188.875 152.786 188.675 153.028 188.567L162.659 184.099L164.359 183.823Z" fill="#252D38"/>
<path d="M164.66 182.601L164.365 185.094C164.365 185.094 162.675 185.884 161.522 184.997L162.22 182.217L164.66 182.601Z" fill="url(#paint2_linear)"/>
<path d="M164.439 135.692C164.568 136.341 165.12 168.203 161.742 182.482C161.688 182.715 161.806 182.953 162.026 183.045C162.546 183.255 163.56 183.569 164.777 183.607C165.152 183.618 165.49 183.374 165.598 183.007C166.563 179.691 171.191 163.098 171.791 147.24C172.467 129.521 171.791 146.634 171.791 146.634L171.395 135.682L164.439 135.692Z" fill="#19202B"/>
<path d="M175.444 184.916C175.444 184.916 176.023 185.971 176.586 188.767C176.688 189.27 176.339 189.757 175.83 189.805C174.929 189.897 173.545 190.011 172.435 190C171.926 189.995 171.523 189.546 171.588 189.037C171.711 188.015 172.092 186.338 173.277 185.035L175.444 184.916Z" fill="#252D38"/>
<path d="M175.953 181.703L175.267 185.478C175.267 185.478 174.591 185.987 173.245 185.619L173.572 181.557L175.953 181.703Z" fill="url(#paint3_linear)"/>
<path d="M177.809 136.671C180.57 153.481 177.208 178.22 176.076 183.061C176.007 183.358 175.771 183.585 175.47 183.634C174.966 183.721 174.13 183.786 173.309 183.548C173.025 183.466 172.827 183.207 172.816 182.909C172.666 178.994 172.939 154.963 170.365 145.466C170.237 144.984 169.942 144.563 169.539 144.276L164.547 140.695L164.166 134.908L177.809 136.671Z" fill="#19202B"/>
<path d="M160.208 104.82C168.483 104.685 177.615 107.011 177.615 107.011C180.082 121.527 178.044 138.278 178.044 138.278C171.636 139.971 164.407 137.239 164.407 137.239C163.34 131.171 158.374 114.091 158.374 114.091C154.331 113.582 151.001 112.408 148.255 110.851C150.346 108.406 151.333 105.291 151.762 103.452C154.695 104.371 157.656 104.863 160.208 104.82Z" fill="#2A343D"/>
<path d="M135.76 92.5211C136.575 91.5313 137.605 92.0019 137.605 92.0019C138.822 97.1887 145.209 101.397 151.773 103.457C151.344 105.296 150.357 108.411 148.266 110.856C137.369 104.68 135.76 92.5211 135.76 92.5211Z" fill="url(#paint4_linear)"/>
<path d="M174.441 115.091L177.616 107.011C177.616 107.011 185.348 112.311 186.619 119.023C185.161 119.131 182.501 119.515 179.9 120.84C179.326 117.671 174.441 115.091 174.441 115.091Z" fill="#2A343D"/>
<path d="M168.59 98.0433L171.223 105.723C171.266 105.853 171.212 105.994 171.1 106.059C170.381 106.459 167.796 107.616 164.681 105.621C164.354 105.415 164.134 105.074 164.086 104.69L163.233 98.0433H168.59Z" fill="url(#paint5_linear)"/>
<path d="M162.863 90.931C162.863 90.931 159.972 96.4207 160.342 98.6382C160.712 100.856 164.295 100.699 167.426 98.8978L169.614 92.97L162.863 90.931Z" fill="url(#paint6_linear)"/>
<path d="M167.287 95.9826C167.158 95.9231 167.115 95.7662 167.19 95.6527C167.421 95.2957 167.855 94.5655 167.995 93.9273C167.995 93.9273 168.515 93.592 166.67 93.1485C164.825 92.705 162.08 92.0127 161.5 90.4334C160.937 88.8919 162.417 85.014 164.777 88.1023C164.868 88.2213 165.045 88.2213 165.131 88.1023C165.517 87.5939 166.536 86.5392 167.946 87.1774C169.271 87.7778 169.416 88.7513 169.4 89.2435C169.394 89.3895 169.523 89.5031 169.662 89.4761C170.333 89.3462 171.936 89.2381 172.682 90.8985C173.298 92.2669 172.896 93.0403 172.531 93.4189C172.413 93.5433 172.467 93.7434 172.628 93.7921C173.068 93.9273 173.636 94.3059 173.577 95.339C173.497 96.7722 171.909 96.6478 171.453 96.5829C171.378 96.5721 171.303 96.5992 171.255 96.6533C170.869 97.0859 169.115 98.9249 167.222 99.1466C167.056 99.1682 166.933 99.0006 166.986 98.8437L167.807 96.4423C167.844 96.3287 167.791 96.2097 167.684 96.1611L167.287 95.9826Z" fill="#0D1419"/>
<path d="M166.955 96.3233C166.955 96.3233 169.014 94.9009 169.164 96.0962C169.314 97.2969 167.309 97.8323 166.316 97.3888L166.955 96.3233Z" fill="url(#paint7_linear)"/>
<path d="M179.9 120.84C179.9 120.84 182.603 133.134 180.152 140.046C183.155 141.447 182.597 141.188 182.597 141.188C182.597 141.188 188.534 123.696 186.619 119.023C182.839 118.623 180.967 119.645 179.9 120.84Z" fill="url(#paint8_linear)"/>
<path d="M180.152 140.046C180.152 140.046 178.607 142.064 178.731 142.87C178.854 143.675 178.886 144 178.886 144C178.886 144 179.664 143.465 179.615 142.778C179.508 144.952 178.784 147.424 179.444 147.305C180.098 147.186 183.493 144.027 182.726 140.663C180.978 139.446 180.49 139.581 180.152 140.046Z" fill="url(#paint9_linear)"/>
<defs>
<linearGradient id="paint0_linear" x1="30.3084" y1="-6.6231" x2="-0.492504" y2="-34.3746" gradientUnits="userSpaceOnUse">
<stop stop-color="#FEBBBA"/>
<stop offset="1" stop-color="#FF928E"/>
</linearGradient>
<linearGradient id="paint1_linear" x1="137.75" y1="94.4075" x2="133.528" y2="85.964" gradientUnits="userSpaceOnUse">
<stop stop-color="#FEBBBA"/>
<stop offset="1" stop-color="#FF928E"/>
</linearGradient>
<linearGradient id="paint2_linear" x1="164.661" y1="183.817" x2="161.528" y2="183.817" gradientUnits="userSpaceOnUse">
<stop stop-color="#FEBBBA"/>
<stop offset="1" stop-color="#FF928E"/>
</linearGradient>
<linearGradient id="paint3_linear" x1="175.953" y1="183.655" x2="173.248" y2="183.655" gradientUnits="userSpaceOnUse">
<stop stop-color="#FEBBBA"/>
<stop offset="1" stop-color="#FF928E"/>
</linearGradient>
<linearGradient id="paint4_linear" x1="135.76" y1="101.372" x2="151.767" y2="101.372" gradientUnits="userSpaceOnUse">
<stop stop-color="#FEBBBA"/>
<stop offset="1" stop-color="#FF928E"/>
</linearGradient>
<linearGradient id="paint5_linear" x1="171.24" y1="102.398" x2="163.231" y2="102.398" gradientUnits="userSpaceOnUse">
<stop stop-color="#FEBBBA"/>
<stop offset="1" stop-color="#FF928E"/>
</linearGradient>
<linearGradient id="paint6_linear" x1="161.326" y1="97.2594" x2="170.172" y2="91.9092" gradientUnits="userSpaceOnUse">
<stop stop-color="#FEBBBA"/>
<stop offset="1" stop-color="#FF928E"/>
</linearGradient>
<linearGradient id="paint7_linear" x1="163.639" y1="99.2794" x2="171.598" y2="94.4658" gradientUnits="userSpaceOnUse">
<stop stop-color="#FEBBBA"/>
<stop offset="1" stop-color="#FF928E"/>
</linearGradient>
<linearGradient id="paint8_linear" x1="177.946" y1="161.792" x2="184.567" y2="114.644" gradientUnits="userSpaceOnUse">
<stop stop-color="#FEBBBA"/>
<stop offset="1" stop-color="#FF928E"/>
</linearGradient>
<linearGradient id="paint9_linear" x1="178.721" y1="157.255" x2="184.005" y2="119.631" gradientUnits="userSpaceOnUse">
<stop stop-color="#FEBBBA"/>
<stop offset="1" stop-color="#FF928E"/>
</linearGradient>
</defs>
</svg>
