<svg id="Capa_1" enable-background="new 0 0 512 512" height="512" viewBox="0 0 512 512" width="512" xmlns="http://www.w3.org/2000/svg" xmlns:xlink="http://www.w3.org/1999/xlink"><linearGradient id="SVGID_1_" gradientUnits="userSpaceOnUse" x1="256" x2="256" y1="512" y2="0"><stop offset="0" stop-color="#c3ffe8"/><stop offset=".9973" stop-color="#f0fff4"/></linearGradient><linearGradient id="SVGID_2_" gradientUnits="userSpaceOnUse" x1="256" x2="256" y1="105" y2="407"><stop offset="0" stop-color="#00b59c"/><stop offset="1" stop-color="#9cffac"/></linearGradient><g><circle cx="256" cy="256" fill="url(#SVGID_1_)" r="256"/><g><g><path d="m407 256c0-76.272-56.769-140.746-130.778-150.353-4.456-.579-8.634 2.272-9.723 6.628l-8.704 34.816c-1.317 5.271 2.388 10.478 7.799 10.959 49.525 4.407 88.32 47.431 88.32 97.95 0 32.974-16.405 63.531-43.282 81.493l-11.573-15.431c-4.462-5.949-13.858-4.052-15.662 3.163l-17.695 70.781c-1.397 5.587 2.838 10.994 8.584 10.994h70.781c7.274 0 11.448-8.33 7.078-14.156l-9.577-12.77c39.306-27.498 64.432-73.39 64.432-124.074zm-160.594 97.95c-49.525-4.407-88.32-47.172-88.32-97.36 0-32.774 16.774-64.176 43.293-82.069l11.562 15.417c4.463 5.949 13.858 4.052 15.662-3.163l17.695-70.781c1.397-5.587-2.838-10.994-8.584-10.994h-70.781c-7.274 0-11.448 8.329-7.078 14.156l9.579 12.771c-39.972 28.002-64.434 74.899-64.434 124.663 0 75.701 56.222 140.085 130.778 149.763 4.431.577 8.629-2.252 9.723-6.628l8.704-34.817c1.318-5.27-2.388-10.477-7.799-10.958z" fill="url(#SVGID_2_)"/></g></g></g></svg>