<svg height="512" viewBox="0 0 60 49" width="512" xmlns="http://www.w3.org/2000/svg"><g id="Page-1" fill="none" fill-rule="evenodd"><g id="023---Whistle" fill="rgb(0,0,0)" fill-rule="nonzero" transform="translate(-1)"><path id="Shape" d="m58 11h-31.537c-9.3449238-.0534616-17.398089 6.5671795-19.153 15.746-1.65698255-1.1833695-3.93849403-.9331647-5.29962721.5811903-1.36113319 1.514355-1.36746666 3.8095363-.01471177 5.3313802s3.63285078 1.7846363 5.29633898.6104295c1.58031882 9.0956423 9.4760934 15.7349639 18.708 15.731h.167c10.541355-.2515097 18.9283601-8.9190762 18.833-19.463v-1c.0122405-2.4760756 1.8250276-4.574802 4.273-4.947l6.6-.969c2.9388441-.4468017 5.1144618-2.967412 5.127-5.94v-2.681c0-1.6568542-1.3431458-3-3-3zm-13 2v4c0 .5522847-.4477153 1-1 1h-2c-.5522847 0-1-.4477153-1-1v-4zm-40 19c-1.1045695 0-2-.8954305-2-2s.8954305-2 2-2 2 .8954305 2 2-.8954305 2-2 2zm54-15.319c-.0100488 1.9808595-1.460564 3.6596219-3.419 3.957l-6.6.969c-3.4268897.5213858-5.9643055 3.4597142-5.981 6.926v1c.1008492 9.4492681-7.4041997 17.2286693-16.851 17.467h-.149c-4.5346154.0001742-8.8813666-1.8113311-12.0738029-5.0317482-3.1924364-3.2204172-4.96594167-7.5828106-4.9261971-12.1172518.23831412-9.4452267 8.0152823-16.9496469 17.463-16.851h12.537v4c0 1.6568542 1.3431458 3 3 3h2c1.6568542 0 3-1.3431458 3-3v-4h11c.5522847 0 1 .4477153 1 1z"/><path id="Shape" d="m26 17c-7.1797017 0-13 5.8202983-13 13s5.8202983 13 13 13 13-5.8202983 13-13c-.008266-7.1762751-5.8237249-12.991734-13-13zm0 24c-6.0751322 0-11-4.9248678-11-11s4.9248678-11 11-11 11 4.9248678 11 11c-.0071635 6.0721626-4.9278374 10.9928365-11 11z"/><path id="Shape" d="m26 21c-4.9680501.006061-8.993939 4.0319499-9 9 0 .5522847.4477153 1 1 1s1-.4477153 1-1c.0044086-3.8641657 3.1358343-6.9955914 7-7 .5522847 0 1-.4477153 1-1s-.4477153-1-1-1z"/><path id="Shape" d="m42 1v4c0 .55228475.4477153 1 1 1s1-.44771525 1-1v-4c0-.55228475-.4477153-1-1-1s-1 .44771525-1 1z"/><path id="Shape" d="m36.445 3.168c-.2206869.1471733-.3738581.37599843-.4258077.63612132-.0519495.26012289.0015795.53022847.1488077.75087868l2 3c.1982824.29724499.5400812.46612829.8966441.44303318s.6737195-.23465992.832-.55500002c.1582805-.32034009.1336383-.70078819-.0646441-.99803316l-2-3c-.1471733-.22068687-.3759984-.37385812-.6361213-.42580768s-.5302285.00157944-.7508787.14880768z"/><path id="Shape" d="m47 8c.3346327.00038456.6472789-.1666353.833-.445l2-3c.306518-.45950091.1825009-1.08048196-.277-1.387s-1.080482-.18250091-1.387.277l-2 3c-.2046328.30670942-.2238907.70113903-.05011 1.02632439s.5124026.52836217.88111.52867561z"/></g></g></svg>